{
 "cells": [
  {
   "cell_type": "markdown",
   "id": "18a799a9",
   "metadata": {},
   "source": [
    "# ios上架有一堆解析度需要調整，這裡做個工具幫忙調整"
   ]
  },
  {
   "cell_type": "markdown",
   "id": "d41ebacb",
   "metadata": {},
   "source": [
    "## MAC FFMPEG 安裝方式\n",
    "```\n",
    "brew install ffmpeg\n",
    "```\n",
    "https://juejin.cn/post/6844904191433900040\n",
    "https://stackoverflow.com/questions/54161418/python3-6-add-audio-to-cv2-processed-video"
   ]
  },
  {
   "cell_type": "markdown",
   "id": "80d2a459",
   "metadata": {},
   "source": [
    "## 函式庫先執行"
   ]
  },
  {
   "cell_type": "code",
   "execution_count": 1,
   "id": "a4ddac8b",
   "metadata": {},
   "outputs": [],
   "source": [
    "#opencv內建的Resize 比例會跑掉，這是用裁切的方式等比例放大或是縮小\n",
    "import cv2\n",
    "def AkingResize(img , OutPutWidth , OutPutHeight):\n",
    "    InimgW = img.shape[1]\n",
    "    InimgH = img.shape[0]\n",
    "    InRatio = InimgW / InimgH\n",
    "    OutRatio = OutPutWidth / OutPutHeight\n",
    "    if (OutRatio > InRatio): #更扁平 所以縮放的時候寬度一樣，原圖的高度要裁切\n",
    "        #print (\"壓扁\")\n",
    "        NewHeight = int(InimgW * OutPutHeight / OutPutWidth)\n",
    "        CenterY = InimgH / 2\n",
    "        StartY = int(CenterY - NewHeight / 2)\n",
    "        EndY = StartY + NewHeight\n",
    "        NewImg = img[StartY:EndY,0:InimgW]\n",
    "        Resizedimage = cv2.resize(NewImg, (OutPutWidth, OutPutHeight), interpolation=cv2.INTER_CUBIC)\n",
    "    elif (OutRatio < InRatio): #更高長 所以縮放的時候高度一樣，原圖的寬度要裁切\n",
    "        #print (\"長高\")\n",
    "        NewWidth = int(InimgH * OutPutWidth / OutPutHeight)\n",
    "        CenterX = InimgW / 2\n",
    "        StartX = int(CenterX - NewWidth / 2)\n",
    "        EndX = StartX + NewWidth\n",
    "        NewImg = img[0:InimgH,StartX:EndX]\n",
    "        Resizedimage = cv2.resize(NewImg, (OutPutWidth, OutPutHeight), interpolation=cv2.INTER_CUBIC)\n",
    "    else: #相同比例\n",
    "        Resizedimage = cv2.resize(img, (OutPutWidth, OutPutHeight), interpolation=cv2.INTER_CUBIC)\n",
    "    return Resizedimage\n",
    "\n",
    "def ResizePic(InputPicPathName , OutPutWidth,OutPutHeight,OutputPicPathName):\n",
    "    #=============開始轉換====================================\n",
    "    img = cv2.imread(InputPicPathName)\n",
    "    if (img.any() != None):\n",
    "        Resizedimage = AkingResize(img , OutPutWidth , OutPutHeight)\n",
    "        cv2.imwrite(OutputPicPathName, Resizedimage)\n",
    "        # 顯示圖片\n",
    "        #cv2.imshow('Resized image', Resizedimage)\n",
    "        #cv2.waitKey(3)\n",
    "        #cv2.destroyAllWindows()\n",
    "        print (\"圖片轉換完成\")\n",
    "        # 按下任意鍵則關閉所有視窗\n",
    "    else:\n",
    "        print (\"圖片讀取失敗\")\n",
    "        \n",
    "        "
   ]
  },
  {
   "cell_type": "markdown",
   "id": "e024c7ff",
   "metadata": {},
   "source": [
    "## 照片調整\n",
    "\n",
    "#### 設定sourcePath 的資料夾，把整個資料夾內的所有圖片轉換解析度  \n",
    "2688 6.5寸  \n",
    "2208 5.5寸  \n",
    "2732 12.9寸"
   ]
  },
  {
   "cell_type": "code",
   "execution_count": 2,
   "id": "a302b026",
   "metadata": {},
   "outputs": [
    {
     "name": "stdout",
     "output_type": "stream",
     "text": [
      ".DS_Store\n",
      "4.png\n",
      "圖片轉換完成\n",
      "5.png\n",
      "圖片轉換完成\n",
      "6.png\n",
      "圖片轉換完成\n",
      "2.png\n",
      "圖片轉換完成\n",
      "3.png\n",
      "圖片轉換完成\n",
      "1.png\n",
      "圖片轉換完成\n",
      "2688\n",
      ".DS_Store\n",
      "4.png\n",
      "圖片轉換完成\n",
      "5.png\n",
      "圖片轉換完成\n",
      "6.png\n",
      "圖片轉換完成\n",
      "2.png\n",
      "圖片轉換完成\n",
      "3.png\n",
      "圖片轉換完成\n",
      "1.png\n",
      "圖片轉換完成\n",
      "2688\n",
      ".DS_Store\n",
      "4.png\n",
      "圖片轉換完成\n",
      "5.png\n",
      "圖片轉換完成\n",
      "6.png\n",
      "圖片轉換完成\n",
      "2.png\n",
      "圖片轉換完成\n",
      "3.png\n",
      "圖片轉換完成\n",
      "2208\n",
      "1.png\n",
      "圖片轉換完成\n"
     ]
    }
   ],
   "source": [
    "from os import listdir\n",
    "from os.path import isfile, isdir, join\n",
    "import os\n",
    "sourcePath = r'/Users/aking/Desktop/Temp/pic'\n",
    "\n",
    "\n",
    "def DoPic(sourcePath ,OutPutWidth ,OutPutHeight):\n",
    "    files = listdir(sourcePath)\n",
    "    OutputPicPath = join(sourcePath ,\"{}\".format(OutPutHeight ))\n",
    "    if not os.path.isdir(OutputPicPath):\n",
    "        os.mkdir(OutputPicPath)\n",
    "    for file in files:\n",
    "        #先搞定資料夾\n",
    "        print (file)\n",
    "        if (file == \".DS_Store\"):\n",
    "            continue\n",
    "        InputPicPathName = join(sourcePath ,file )\n",
    "        if (os.path.isfile(InputPicPathName)):\n",
    "            OutputPicPathName = join(OutputPicPath ,file )\n",
    "            ResizePic(InputPicPathName , OutPutWidth,OutPutHeight,OutputPicPathName)\n",
    "        \n",
    "DoPic(sourcePath , 1242 ,2688 )   \n",
    "DoPic(sourcePath , 1242 ,2208 ) \n",
    "DoPic(sourcePath , 2048 ,2732 ) \n",
    "\n",
    "#1242 2688. \n",
    "#1242 2208. \n",
    "#2048 2732"
   ]
  },
  {
   "cell_type": "markdown",
   "id": "701e45db",
   "metadata": {},
   "source": [
    "## 影片調整"
   ]
  },
  {
   "cell_type": "code",
   "execution_count": 3,
   "id": "7948e7cf",
   "metadata": {},
   "outputs": [],
   "source": [
    "#影片調整函式\n",
    "import cv2\n",
    "import os\n",
    "\n",
    "def ResizeVideo(InputVideoPathName , OutPutWidth,OutPutHeight,OutputVideoPathName):\n",
    "    #=======================輸入設定====================================\n",
    "    video = cv2.VideoCapture(InputVideoPathName)\n",
    "    # 取得影像的尺寸大小\n",
    "    width = video.get(cv2.CAP_PROP_FRAME_WIDTH)\n",
    "    height = video.get(cv2.CAP_PROP_FRAME_HEIGHT)\n",
    "    fps = video.get(cv2.CAP_PROP_FPS) #每秒鐘幾張\n",
    "    print (\"原始寬度{} 高度{} FPS{}\".format(width , height,fps))\n",
    "\n",
    "\n",
    "    #=======================輸出檔案設定=======================\n",
    "    fourcc = cv2.VideoWriter_fourcc(*'avc1')\n",
    "    VideoFilePath = r\"{}/TmpVideo.mp4\".format(os.path.dirname(InputVideoPathName)) #解析度調整後的畫面\n",
    "    SoundFilePath = r\"{}/sound.mp3\".format(os.path.dirname(InputVideoPathName))    #原始檔案分離出聲音\n",
    "    VideoWithSoundFilePath = r\"{}/TmpVideoWithSound.mp4\".format(os.path.dirname(InputVideoPathName)) #畫面與聲音合成影片\n",
    "    #畫面與聲音合成影片 之後需要再轉檔一次 app store才會接受\n",
    "\n",
    "    out = cv2.VideoWriter(VideoFilePath, fourcc, fps, (int(OutPutWidth),  int(OutPutHeight)))\n",
    "    #=============開始轉換====================================\n",
    "    while video.isOpened():\n",
    "        ret, frame = video.read()\n",
    "        if not ret:\n",
    "            break\n",
    "        image = AkingResize(frame, OutPutWidth, OutPutHeight)\n",
    "        out.write(image)\n",
    "        cv2.imshow('frame', image)\n",
    "        if cv2.waitKey(1) == ord('q'):\n",
    "            break\n",
    "    video.release()\n",
    "    out.release()\n",
    "\n",
    "    CMD = r\"ffmpeg -i {} -f mp3 -ab 256000 -vn {}\".format(InputVideoPathName,SoundFilePath) #原始檔案分離出聲音\n",
    "    os.system(CMD) #原始檔案分離出聲音\n",
    "\n",
    "\n",
    "    CMD1 = r\"ffmpeg -i {} -i {} -c copy -map 0:v:0 -map 1:a:0 {}\".format(VideoFilePath, SoundFilePath , VideoWithSoundFilePath)\n",
    "    os.system(CMD1) #畫面與聲音合成影片\n",
    "\n",
    "    CMD2 = \"ffmpeg -i {} -filter_complex 'scale={}:{},framerate=30' {}\".format(VideoWithSoundFilePath , OutPutWidth,OutPutHeight,OutputVideoPathName)\n",
    "    os.system(CMD2) #最後再轉檔案一次 App store才會吃\n",
    "\n",
    "\n",
    "\n",
    "    os.system(\"rm -f {}\".format(VideoFilePath)) \n",
    "    os.system(\"rm -f {}\".format(SoundFilePath)) \n",
    "    os.system(\"rm -f {}\".format(VideoWithSoundFilePath)) \n",
    "\n",
    "\n",
    "\n",
    "    print(\"轉換完成\")\n",
    "    cv2.destroyAllWindows() #MAC無法關閉視窗 就算了\n",
    "    "
   ]
  },
  {
   "cell_type": "markdown",
   "id": "f8fce15f",
   "metadata": {},
   "source": [
    "6.5 吋 886 x 1920 像素（直向）  \n",
    "5.5 吋  1080 x 1920   \n",
    "12.9 吋   1200 x 1600   "
   ]
  },
  {
   "cell_type": "markdown",
   "id": "8d2fa330",
   "metadata": {},
   "source": [
    "# 單一影片調整"
   ]
  },
  {
   "cell_type": "code",
   "execution_count": 4,
   "id": "48055050",
   "metadata": {},
   "outputs": [
    {
     "name": "stdout",
     "output_type": "stream",
     "text": [
      "原始寬度498.0 高度1080.0 FPS30.0\n"
     ]
    },
    {
     "name": "stderr",
     "output_type": "stream",
     "text": [
      "ffmpeg version 5.0.1 Copyright (c) 2000-2022 the FFmpeg developers\n",
      "  built with Apple clang version 13.1.6 (clang-1316.0.21.2)\n",
      "  configuration: --prefix=/usr/local/Cellar/ffmpeg/5.0.1 --enable-shared --enable-pthreads --enable-version3 --cc=clang --host-cflags= --host-ldflags= --enable-ffplay --enable-gnutls --enable-gpl --enable-libaom --enable-libbluray --enable-libdav1d --enable-libmp3lame --enable-libopus --enable-librav1e --enable-librist --enable-librubberband --enable-libsnappy --enable-libsrt --enable-libtesseract --enable-libtheora --enable-libvidstab --enable-libvmaf --enable-libvorbis --enable-libvpx --enable-libwebp --enable-libx264 --enable-libx265 --enable-libxml2 --enable-libxvid --enable-lzma --enable-libfontconfig --enable-libfreetype --enable-frei0r --enable-libass --enable-libopencore-amrnb --enable-libopencore-amrwb --enable-libopenjpeg --enable-libspeex --enable-libsoxr --enable-libzmq --enable-libzimg --disable-libjack --disable-indev=jack --enable-videotoolbox\n",
      "  libavutil      57. 17.100 / 57. 17.100\n",
      "  libavcodec     59. 18.100 / 59. 18.100\n",
      "  libavformat    59. 16.100 / 59. 16.100\n",
      "  libavdevice    59.  4.100 / 59.  4.100\n",
      "  libavfilter     8. 24.100 /  8. 24.100\n",
      "  libswscale      6.  4.100 /  6.  4.100\n",
      "  libswresample   4.  3.100 /  4.  3.100\n",
      "  libpostproc    56.  3.100 / 56.  3.100\n",
      "[mov,mp4,m4a,3gp,3g2,mj2 @ 0x7fe2a0105200] stream 0, timescale not set\n",
      "Guessed Channel Layout for Input Stream #0.0 : stereo\n",
      "Input #0, mov,mp4,m4a,3gp,3g2,mj2, from '/Users/aking/Desktop/Temp/ShrinkTutorial.mov':\n",
      "  Metadata:\n",
      "    major_brand     : qt  \n",
      "    minor_version   : 0\n",
      "    compatible_brands: qt  \n",
      "    creation_time   : 2022-04-27T06:25:41.000000Z\n",
      "    keywords        : iMovie\n",
      "    title           : App 預覽\n",
      "    com.apple.quicktime.author: \n",
      "    com.apple.quicktime.keywords: iMovie\n",
      "    com.apple.quicktime.displayname: App 預覽\n",
      "    com.apple.quicktime.title: App 預覽\n",
      "    com.apple.quicktime.description: ShrinkTutorial\n",
      "  Duration: 00:00:29.77, start: 0.000000, bitrate: 51392 kb/s\n",
      "  Stream #0:0[0x1](zho): Audio: pcm_s24le (lpcm / 0x6D63706C), 48000 Hz, stereo, s32 (24 bit), 2304 kb/s (default)\n",
      "    Metadata:\n",
      "      creation_time   : 2022-04-27T06:25:41.000000Z\n",
      "      handler_name    : Core Media Audio\n",
      "      vendor_id       : [0][0][0][0]\n",
      "  Stream #0:1[0x2](und): Video: prores (Standard) (apcn / 0x6E637061), yuv422p10le(tv, bt709, progressive), 498x1080, 49074 kb/s, SAR 1:1 DAR 83:180, 30 fps, 30 tbr, 30k tbn (default)\n",
      "    Metadata:\n",
      "      creation_time   : 2022-04-27T06:25:41.000000Z\n",
      "      handler_name    : Core Media Video\n",
      "      vendor_id       : appl\n",
      "      encoder         : Apple ProRes 422\n",
      "      timecode        : 00:00:00:00\n",
      "  Stream #0:2[0x3](und): Data: none (tmcd / 0x64636D74), 0 kb/s (default)\n",
      "    Metadata:\n",
      "      creation_time   : 2022-04-27T06:25:41.000000Z\n",
      "      handler_name    : Core Media Time Code\n",
      "      timecode        : 00:00:00:00\n",
      "  Stream #0:3[0x0]: Video: mjpeg (Progressive), yuvj420p(pc, bt470bg/unknown/unknown), 498x1080 [SAR 72:72 DAR 83:180], 90k tbr, 90k tbn (attached pic)\n",
      "Stream mapping:\n",
      "  Stream #0:0 -> #0:0 (pcm_s24le (native) -> mp3 (libmp3lame))\n",
      "Press [q] to stop, [?] for help\n",
      "Output #0, mp3, to '/Users/aking/Desktop/Temp/sound.mp3':\n",
      "  Metadata:\n",
      "    major_brand     : qt  \n",
      "    minor_version   : 0\n",
      "    compatible_brands: qt  \n",
      "    com.apple.quicktime.description: ShrinkTutorial\n",
      "    keywords        : iMovie\n",
      "    TIT2            : App 預覽\n",
      "    com.apple.quicktime.author: \n",
      "    com.apple.quicktime.keywords: iMovie\n",
      "    com.apple.quicktime.displayname: App 預覽\n",
      "    com.apple.quicktime.title: App 預覽\n",
      "    TSSE            : Lavf59.16.100\n",
      "  Stream #0:0(zho): Audio: mp3, 48000 Hz, stereo, s32p, 256 kb/s (default)\n",
      "    Metadata:\n",
      "      creation_time   : 2022-04-27T06:25:41.000000Z\n",
      "      handler_name    : Core Media Audio\n",
      "      vendor_id       : [0][0][0][0]\n",
      "      encoder         : Lavc59.18.100 libmp3lame\n",
      "size=     933kB time=00:00:29.78 bitrate= 256.5kbits/s speed= 145x    \n",
      "video:0kB audio:932kB subtitle:0kB other streams:0kB global headers:0kB muxing overhead: 0.125491%\n",
      "ffmpeg version 5.0.1 Copyright (c) 2000-2022 the FFmpeg developers\n",
      "  built with Apple clang version 13.1.6 (clang-1316.0.21.2)\n",
      "  configuration: --prefix=/usr/local/Cellar/ffmpeg/5.0.1 --enable-shared --enable-pthreads --enable-version3 --cc=clang --host-cflags= --host-ldflags= --enable-ffplay --enable-gnutls --enable-gpl --enable-libaom --enable-libbluray --enable-libdav1d --enable-libmp3lame --enable-libopus --enable-librav1e --enable-librist --enable-librubberband --enable-libsnappy --enable-libsrt --enable-libtesseract --enable-libtheora --enable-libvidstab --enable-libvmaf --enable-libvorbis --enable-libvpx --enable-libwebp --enable-libx264 --enable-libx265 --enable-libxml2 --enable-libxvid --enable-lzma --enable-libfontconfig --enable-libfreetype --enable-frei0r --enable-libass --enable-libopencore-amrnb --enable-libopencore-amrwb --enable-libopenjpeg --enable-libspeex --enable-libsoxr --enable-libzmq --enable-libzimg --disable-libjack --disable-indev=jack --enable-videotoolbox\n",
      "  libavutil      57. 17.100 / 57. 17.100\n",
      "  libavcodec     59. 18.100 / 59. 18.100\n",
      "  libavformat    59. 16.100 / 59. 16.100\n",
      "  libavdevice    59.  4.100 / 59.  4.100\n",
      "  libavfilter     8. 24.100 /  8. 24.100\n",
      "  libswscale      6.  4.100 /  6.  4.100\n",
      "  libswresample   4.  3.100 /  4.  3.100\n",
      "  libpostproc    56.  3.100 / 56.  3.100\n",
      "Input #0, mov,mp4,m4a,3gp,3g2,mj2, from '/Users/aking/Desktop/Temp/TmpVideo.mp4':\n",
      "  Metadata:\n",
      "    major_brand     : isom\n",
      "    minor_version   : 512\n",
      "    compatible_brands: isomiso2avc1mp41\n",
      "    encoder         : Lavf58.76.100\n",
      "  Duration: 00:00:29.77, start: 0.000000, bitrate: 21728 kb/s\n",
      "  Stream #0:0[0x1](und): Video: h264 (High) (avc1 / 0x31637661), yuv420p(progressive), 886x1920 [SAR 1:1 DAR 443:960], 21725 kb/s, 30 fps, 30 tbr, 15360 tbn (default)\n",
      "    Metadata:\n",
      "      handler_name    : VideoHandler\n",
      "      vendor_id       : [0][0][0][0]\n",
      "Input #1, mp3, from '/Users/aking/Desktop/Temp/sound.mp3':\n",
      "  Metadata:\n",
      "    major_brand     : qt  \n",
      "    minor_version   : 0\n",
      "    compatible_brands: qt  \n",
      "    com.apple.quicktime.description: ShrinkTutorial\n",
      "    keywords        : iMovie\n",
      "    title           : App 預覽\n",
      "    com.apple.quicktime.author: \n",
      "    com.apple.quicktime.keywords: iMovie\n",
      "    com.apple.quicktime.displayname: App 預覽\n",
      "    com.apple.quicktime.title: App 預覽\n",
      "    encoder         : Lavf59.16.100\n",
      "  Duration: 00:00:29.81, start: 0.023021, bitrate: 256 kb/s\n",
      "  Stream #1:0: Audio: mp3, 48000 Hz, stereo, fltp, 256 kb/s\n",
      "    Metadata:\n",
      "      encoder         : Lavc59.18\n",
      "Output #0, mp4, to '/Users/aking/Desktop/Temp/TmpVideoWithSound.mp4':\n",
      "  Metadata:\n",
      "    major_brand     : isom\n",
      "    minor_version   : 512\n",
      "    compatible_brands: isomiso2avc1mp41\n",
      "    encoder         : Lavf59.16.100\n",
      "  Stream #0:0(und): Video: h264 (High) (avc1 / 0x31637661), yuv420p(progressive), 886x1920 [SAR 1:1 DAR 443:960], q=2-31, 21725 kb/s, 30 fps, 30 tbr, 15360 tbn (default)\n",
      "    Metadata:\n",
      "      handler_name    : VideoHandler\n",
      "      vendor_id       : [0][0][0][0]\n",
      "  Stream #0:1: Audio: mp3 (mp4a / 0x6134706D), 48000 Hz, stereo, fltp, 256 kb/s\n",
      "    Metadata:\n",
      "      encoder         : Lavc59.18\n",
      "Stream mapping:\n",
      "  Stream #0:0 -> #0:0 (copy)\n",
      "  Stream #1:0 -> #0:1 (copy)\n",
      "Press [q] to stop, [?] for help\n",
      "frame=  893 fps=0.0 q=-1.0 Lsize=   79900kB time=00:00:29.78 bitrate=21975.5kbits/s speed= 373x    \n",
      "video:78942kB audio:932kB subtitle:0kB other streams:0kB global headers:0kB muxing overhead: 0.033664%\n",
      "ffmpeg version 5.0.1 Copyright (c) 2000-2022 the FFmpeg developers\n",
      "  built with Apple clang version 13.1.6 (clang-1316.0.21.2)\n",
      "  configuration: --prefix=/usr/local/Cellar/ffmpeg/5.0.1 --enable-shared --enable-pthreads --enable-version3 --cc=clang --host-cflags= --host-ldflags= --enable-ffplay --enable-gnutls --enable-gpl --enable-libaom --enable-libbluray --enable-libdav1d --enable-libmp3lame --enable-libopus --enable-librav1e --enable-librist --enable-librubberband --enable-libsnappy --enable-libsrt --enable-libtesseract --enable-libtheora --enable-libvidstab --enable-libvmaf --enable-libvorbis --enable-libvpx --enable-libwebp --enable-libx264 --enable-libx265 --enable-libxml2 --enable-libxvid --enable-lzma --enable-libfontconfig --enable-libfreetype --enable-frei0r --enable-libass --enable-libopencore-amrnb --enable-libopencore-amrwb --enable-libopenjpeg --enable-libspeex --enable-libsoxr --enable-libzmq --enable-libzimg --disable-libjack --disable-indev=jack --enable-videotoolbox\n",
      "  libavutil      57. 17.100 / 57. 17.100\n",
      "  libavcodec     59. 18.100 / 59. 18.100\n",
      "  libavformat    59. 16.100 / 59. 16.100\n",
      "  libavdevice    59.  4.100 / 59.  4.100\n",
      "  libavfilter     8. 24.100 /  8. 24.100\n",
      "  libswscale      6.  4.100 /  6.  4.100\n",
      "  libswresample   4.  3.100 /  4.  3.100\n",
      "  libpostproc    56.  3.100 / 56.  3.100\n",
      "Input #0, mov,mp4,m4a,3gp,3g2,mj2, from '/Users/aking/Desktop/Temp/TmpVideoWithSound.mp4':\n",
      "  Metadata:\n",
      "    major_brand     : isom\n",
      "    minor_version   : 512\n",
      "    compatible_brands: isomiso2avc1mp41\n",
      "    encoder         : Lavf59.16.100\n",
      "  Duration: 00:00:29.79, start: 0.000000, bitrate: 21975 kb/s\n",
      "  Stream #0:0[0x1](und): Video: h264 (High) (avc1 / 0x31637661), yuv420p(progressive), 886x1920 [SAR 1:1 DAR 443:960], 21725 kb/s, 30 fps, 30 tbr, 15360 tbn (default)\n",
      "    Metadata:\n",
      "      handler_name    : VideoHandler\n",
      "      vendor_id       : [0][0][0][0]\n",
      "  Stream #0:1[0x2](und): Audio: mp3 (mp4a / 0x6134706D), 48000 Hz, stereo, fltp, 256 kb/s (default)\n",
      "    Metadata:\n",
      "      handler_name    : SoundHandler\n",
      "      vendor_id       : [0][0][0][0]\n",
      "Stream mapping:\n",
      "  Stream #0:0 (h264) -> scale:default (graph 0)\n",
      "  framerate:default (graph 0) -> Stream #0:0 (libx264)\n",
      "  Stream #0:1 -> #0:1 (mp3 (mp3float) -> aac (native))\n",
      "Press [q] to stop, [?] for help\n",
      "[Parsed_framerate_1 @ 0x7fcfb5a06180] time base:1/15360 -> 1/15360 exact:1\n",
      "[Parsed_framerate_1 @ 0x7fcfb5a06180] fps -> fps:30/1 scene score:8.200000 interpolate start:15 end:240\n",
      "[libx264 @ 0x7fcfb0708040] using SAR=1/1\n",
      "[libx264 @ 0x7fcfb0708040] using cpu capabilities: MMX2 SSE2Fast SSSE3 SSE4.2 AVX FMA3 BMI2 AVX2\n",
      "[libx264 @ 0x7fcfb0708040] profile High, level 4.0, 4:2:0, 8-bit\n",
      "[libx264 @ 0x7fcfb0708040] 264 - core 163 r3060 5db6aa6 - H.264/MPEG-4 AVC codec - Copyleft 2003-2021 - http://www.videolan.org/x264.html - options: cabac=1 ref=3 deblock=1:0:0 analyse=0x3:0x113 me=hex subme=7 psy=1 psy_rd=1.00:0.00 mixed_ref=1 me_range=16 chroma_me=1 trellis=1 8x8dct=1 cqm=0 deadzone=21,11 fast_pskip=1 chroma_qp_offset=-2 threads=12 lookahead_threads=2 sliced_threads=0 nr=0 decimate=1 interlaced=0 bluray_compat=0 constrained_intra=0 bframes=3 b_pyramid=2 b_adapt=1 b_bias=0 direct=1 weightb=1 open_gop=0 weightp=2 keyint=250 keyint_min=25 scenecut=40 intra_refresh=0 rc_lookahead=40 rc=crf mbtree=1 crf=23.0 qcomp=0.60 qpmin=0 qpmax=69 qpstep=4 ip_ratio=1.40 aq=1:1.00\n",
      "Output #0, mp4, to '/Users/aking/Desktop/Temp/ShrinkTutorial886.mp4':\n",
      "  Metadata:\n",
      "    major_brand     : isom\n",
      "    minor_version   : 512\n",
      "    compatible_brands: isomiso2avc1mp41\n",
      "    encoder         : Lavf59.16.100\n",
      "  Stream #0:0: Video: h264 (avc1 / 0x31637661), yuv420p(progressive), 886x1920 [SAR 1:1 DAR 443:960], q=2-31, 30 fps, 15360 tbn\n",
      "    Metadata:\n",
      "      encoder         : Lavc59.18.100 libx264\n",
      "    Side data:\n",
      "      cpb: bitrate max/min/avg: 0/0/0 buffer size: 0 vbv_delay: N/A\n",
      "  Stream #0:1(und): Audio: aac (LC) (mp4a / 0x6134706D), 48000 Hz, stereo, fltp, 128 kb/s (default)\n",
      "    Metadata:\n",
      "      handler_name    : SoundHandler\n",
      "      vendor_id       : [0][0][0][0]\n",
      "      encoder         : Lavc59.18.100 aac\n"
     ]
    },
    {
     "name": "stderr",
     "output_type": "stream",
     "text": [
      "frame=  876 fps= 57 q=29.0 size=    7168kB time=00:00:29.44 bitrate=1994.6kbits/s speed=1.92x    \r"
     ]
    },
    {
     "name": "stdout",
     "output_type": "stream",
     "text": [
      "轉換完成\n"
     ]
    },
    {
     "name": "stderr",
     "output_type": "stream",
     "text": [
      "frame=  893 fps= 56 q=-1.0 Lsize=    7802kB time=00:00:29.80 bitrate=2144.5kbits/s speed=1.87x    \n",
      "video:7760kB audio:8kB subtitle:0kB other streams:0kB global headers:0kB muxing overhead: 0.429150%\n",
      "[libx264 @ 0x7fcfb0708040] frame I:10    Avg QP:17.54  size: 60154\n",
      "[libx264 @ 0x7fcfb0708040] frame P:238   Avg QP:21.58  size: 17363\n",
      "[libx264 @ 0x7fcfb0708040] frame B:645   Avg QP:23.73  size:  4980\n",
      "[libx264 @ 0x7fcfb0708040] consecutive B-frames:  2.5%  2.9%  2.4% 92.3%\n",
      "[libx264 @ 0x7fcfb0708040] mb I  I16..4: 23.0% 66.9% 10.1%\n",
      "[libx264 @ 0x7fcfb0708040] mb P  I16..4:  6.1% 11.5%  0.9%  P16..4: 28.6%  5.5%  3.2%  0.0%  0.0%    skip:44.1%\n",
      "[libx264 @ 0x7fcfb0708040] mb B  I16..4:  0.7%  0.6%  0.0%  B16..8: 26.9%  1.5%  0.1%  direct: 2.1%  skip:68.1%  L0:43.6% L1:53.7% BI: 2.7%\n",
      "[libx264 @ 0x7fcfb0708040] 8x8 transform intra:60.8% inter:87.7%\n",
      "[libx264 @ 0x7fcfb0708040] coded y,uvDC,uvAC intra: 31.5% 29.5% 7.6% inter: 8.0% 10.2% 0.3%\n",
      "[libx264 @ 0x7fcfb0708040] i16 v,h,dc,p: 34% 40% 13% 13%\n",
      "[libx264 @ 0x7fcfb0708040] i8 v,h,dc,ddl,ddr,vr,hd,vl,hu: 23% 24% 39%  2%  2%  2%  3%  2%  2%\n",
      "[libx264 @ 0x7fcfb0708040] i4 v,h,dc,ddl,ddr,vr,hd,vl,hu: 29% 29% 14%  4%  6%  6%  5%  4%  4%\n",
      "[libx264 @ 0x7fcfb0708040] i8c dc,h,v,p: 66% 18% 14%  1%\n",
      "[libx264 @ 0x7fcfb0708040] Weighted P-Frames: Y:5.5% UV:4.6%\n",
      "[libx264 @ 0x7fcfb0708040] ref P L0: 61.4% 11.8% 19.1%  7.7%  0.1%\n",
      "[libx264 @ 0x7fcfb0708040] ref B L0: 85.9% 11.1%  3.0%\n",
      "[libx264 @ 0x7fcfb0708040] ref B L1: 94.1%  5.9%\n",
      "[libx264 @ 0x7fcfb0708040] kb/s:2135.50\n",
      "[aac @ 0x7fcfb0709240] Qavg: 65536.000\n"
     ]
    }
   ],
   "source": [
    "InputVideoPathName = r'/Users/aking/Desktop/Temp/ShrinkTutorial.mov' #輸入影像的路徑與檔名\n",
    "basename = os.path.basename(InputVideoPathName)\n",
    "OutPutWidth = 886           #輸出寬度\n",
    "OutPutHeight = 1920                #輸出高度\n",
    "OutputVideoPathName = r'/Users/aking/Desktop/Temp/{}{}.mp4'.format(basename[:-4] , OutPutWidth)   #輸出影像的路徑與檔名\n",
    "ResizeVideo(InputVideoPathName,OutPutWidth,OutPutHeight,OutputVideoPathName)"
   ]
  },
  {
   "cell_type": "markdown",
   "id": "91ee2425",
   "metadata": {},
   "source": [
    "# 批次影片轉檔案"
   ]
  },
  {
   "cell_type": "code",
   "execution_count": 5,
   "id": "90170d57",
   "metadata": {},
   "outputs": [
    {
     "name": "stdout",
     "output_type": "stream",
     "text": [
      "原始寬度498.0 高度1080.0 FPS30.0\n"
     ]
    },
    {
     "name": "stderr",
     "output_type": "stream",
     "text": [
      "ffmpeg version 5.0.1 Copyright (c) 2000-2022 the FFmpeg developers\n",
      "  built with Apple clang version 13.1.6 (clang-1316.0.21.2)\n",
      "  configuration: --prefix=/usr/local/Cellar/ffmpeg/5.0.1 --enable-shared --enable-pthreads --enable-version3 --cc=clang --host-cflags= --host-ldflags= --enable-ffplay --enable-gnutls --enable-gpl --enable-libaom --enable-libbluray --enable-libdav1d --enable-libmp3lame --enable-libopus --enable-librav1e --enable-librist --enable-librubberband --enable-libsnappy --enable-libsrt --enable-libtesseract --enable-libtheora --enable-libvidstab --enable-libvmaf --enable-libvorbis --enable-libvpx --enable-libwebp --enable-libx264 --enable-libx265 --enable-libxml2 --enable-libxvid --enable-lzma --enable-libfontconfig --enable-libfreetype --enable-frei0r --enable-libass --enable-libopencore-amrnb --enable-libopencore-amrwb --enable-libopenjpeg --enable-libspeex --enable-libsoxr --enable-libzmq --enable-libzimg --disable-libjack --disable-indev=jack --enable-videotoolbox\n",
      "  libavutil      57. 17.100 / 57. 17.100\n",
      "  libavcodec     59. 18.100 / 59. 18.100\n",
      "  libavformat    59. 16.100 / 59. 16.100\n",
      "  libavdevice    59.  4.100 / 59.  4.100\n",
      "  libavfilter     8. 24.100 /  8. 24.100\n",
      "  libswscale      6.  4.100 /  6.  4.100\n",
      "  libswresample   4.  3.100 /  4.  3.100\n",
      "  libpostproc    56.  3.100 / 56.  3.100\n",
      "[mov,mp4,m4a,3gp,3g2,mj2 @ 0x7fa8f74048c0] stream 0, timescale not set\n",
      "Guessed Channel Layout for Input Stream #0.0 : stereo\n",
      "Input #0, mov,mp4,m4a,3gp,3g2,mj2, from '/Users/aking/Desktop/Temp/ShrinkTutorial.mov':\n",
      "  Metadata:\n",
      "    major_brand     : qt  \n",
      "    minor_version   : 0\n",
      "    compatible_brands: qt  \n",
      "    creation_time   : 2022-04-27T06:25:41.000000Z\n",
      "    keywords        : iMovie\n",
      "    title           : App 預覽\n",
      "    com.apple.quicktime.author: \n",
      "    com.apple.quicktime.keywords: iMovie\n",
      "    com.apple.quicktime.displayname: App 預覽\n",
      "    com.apple.quicktime.title: App 預覽\n",
      "    com.apple.quicktime.description: ShrinkTutorial\n",
      "  Duration: 00:00:29.77, start: 0.000000, bitrate: 51392 kb/s\n",
      "  Stream #0:0[0x1](zho): Audio: pcm_s24le (lpcm / 0x6D63706C), 48000 Hz, stereo, s32 (24 bit), 2304 kb/s (default)\n",
      "    Metadata:\n",
      "      creation_time   : 2022-04-27T06:25:41.000000Z\n",
      "      handler_name    : Core Media Audio\n",
      "      vendor_id       : [0][0][0][0]\n",
      "  Stream #0:1[0x2](und): Video: prores (Standard) (apcn / 0x6E637061), yuv422p10le(tv, bt709, progressive), 498x1080, 49074 kb/s, SAR 1:1 DAR 83:180, 30 fps, 30 tbr, 30k tbn (default)\n",
      "    Metadata:\n",
      "      creation_time   : 2022-04-27T06:25:41.000000Z\n",
      "      handler_name    : Core Media Video\n",
      "      vendor_id       : appl\n",
      "      encoder         : Apple ProRes 422\n",
      "      timecode        : 00:00:00:00\n",
      "  Stream #0:2[0x3](und): Data: none (tmcd / 0x64636D74), 0 kb/s (default)\n",
      "    Metadata:\n",
      "      creation_time   : 2022-04-27T06:25:41.000000Z\n",
      "      handler_name    : Core Media Time Code\n",
      "      timecode        : 00:00:00:00\n",
      "  Stream #0:3[0x0]: Video: mjpeg (Progressive), yuvj420p(pc, bt470bg/unknown/unknown), 498x1080 [SAR 72:72 DAR 83:180], 90k tbr, 90k tbn (attached pic)\n",
      "Stream mapping:\n",
      "  Stream #0:0 -> #0:0 (pcm_s24le (native) -> mp3 (libmp3lame))\n",
      "Press [q] to stop, [?] for help\n",
      "Output #0, mp3, to '/Users/aking/Desktop/Temp/sound.mp3':\n",
      "  Metadata:\n",
      "    major_brand     : qt  \n",
      "    minor_version   : 0\n",
      "    compatible_brands: qt  \n",
      "    com.apple.quicktime.description: ShrinkTutorial\n",
      "    keywords        : iMovie\n",
      "    TIT2            : App 預覽\n",
      "    com.apple.quicktime.author: \n",
      "    com.apple.quicktime.keywords: iMovie\n",
      "    com.apple.quicktime.displayname: App 預覽\n",
      "    com.apple.quicktime.title: App 預覽\n",
      "    TSSE            : Lavf59.16.100\n",
      "  Stream #0:0(zho): Audio: mp3, 48000 Hz, stereo, s32p, 256 kb/s (default)\n",
      "    Metadata:\n",
      "      creation_time   : 2022-04-27T06:25:41.000000Z\n",
      "      handler_name    : Core Media Audio\n",
      "      vendor_id       : [0][0][0][0]\n",
      "      encoder         : Lavc59.18.100 libmp3lame\n",
      "size=     933kB time=00:00:29.78 bitrate= 256.5kbits/s speed= 138x    \n",
      "video:0kB audio:932kB subtitle:0kB other streams:0kB global headers:0kB muxing overhead: 0.125491%\n",
      "ffmpeg version 5.0.1 Copyright (c) 2000-2022 the FFmpeg developers\n",
      "  built with Apple clang version 13.1.6 (clang-1316.0.21.2)\n",
      "  configuration: --prefix=/usr/local/Cellar/ffmpeg/5.0.1 --enable-shared --enable-pthreads --enable-version3 --cc=clang --host-cflags= --host-ldflags= --enable-ffplay --enable-gnutls --enable-gpl --enable-libaom --enable-libbluray --enable-libdav1d --enable-libmp3lame --enable-libopus --enable-librav1e --enable-librist --enable-librubberband --enable-libsnappy --enable-libsrt --enable-libtesseract --enable-libtheora --enable-libvidstab --enable-libvmaf --enable-libvorbis --enable-libvpx --enable-libwebp --enable-libx264 --enable-libx265 --enable-libxml2 --enable-libxvid --enable-lzma --enable-libfontconfig --enable-libfreetype --enable-frei0r --enable-libass --enable-libopencore-amrnb --enable-libopencore-amrwb --enable-libopenjpeg --enable-libspeex --enable-libsoxr --enable-libzmq --enable-libzimg --disable-libjack --disable-indev=jack --enable-videotoolbox\n",
      "  libavutil      57. 17.100 / 57. 17.100\n",
      "  libavcodec     59. 18.100 / 59. 18.100\n",
      "  libavformat    59. 16.100 / 59. 16.100\n",
      "  libavdevice    59.  4.100 / 59.  4.100\n",
      "  libavfilter     8. 24.100 /  8. 24.100\n",
      "  libswscale      6.  4.100 /  6.  4.100\n",
      "  libswresample   4.  3.100 /  4.  3.100\n",
      "  libpostproc    56.  3.100 / 56.  3.100\n",
      "Input #0, mov,mp4,m4a,3gp,3g2,mj2, from '/Users/aking/Desktop/Temp/TmpVideo.mp4':\n",
      "  Metadata:\n",
      "    major_brand     : isom\n",
      "    minor_version   : 512\n",
      "    compatible_brands: isomiso2avc1mp41\n",
      "    encoder         : Lavf58.76.100\n",
      "  Duration: 00:00:29.77, start: 0.000000, bitrate: 21728 kb/s\n",
      "  Stream #0:0[0x1](und): Video: h264 (High) (avc1 / 0x31637661), yuv420p(progressive), 886x1920 [SAR 1:1 DAR 443:960], 21725 kb/s, 30 fps, 30 tbr, 15360 tbn (default)\n",
      "    Metadata:\n",
      "      handler_name    : VideoHandler\n",
      "      vendor_id       : [0][0][0][0]\n",
      "Input #1, mp3, from '/Users/aking/Desktop/Temp/sound.mp3':\n",
      "  Metadata:\n",
      "    major_brand     : qt  \n",
      "    minor_version   : 0\n",
      "    compatible_brands: qt  \n",
      "    com.apple.quicktime.description: ShrinkTutorial\n",
      "    keywords        : iMovie\n",
      "    title           : App 預覽\n",
      "    com.apple.quicktime.author: \n",
      "    com.apple.quicktime.keywords: iMovie\n",
      "    com.apple.quicktime.displayname: App 預覽\n",
      "    com.apple.quicktime.title: App 預覽\n",
      "    encoder         : Lavf59.16.100\n",
      "  Duration: 00:00:29.81, start: 0.023021, bitrate: 256 kb/s\n",
      "  Stream #1:0: Audio: mp3, 48000 Hz, stereo, fltp, 256 kb/s\n",
      "    Metadata:\n",
      "      encoder         : Lavc59.18\n",
      "Output #0, mp4, to '/Users/aking/Desktop/Temp/TmpVideoWithSound.mp4':\n",
      "  Metadata:\n",
      "    major_brand     : isom\n",
      "    minor_version   : 512\n",
      "    compatible_brands: isomiso2avc1mp41\n",
      "    encoder         : Lavf59.16.100\n",
      "  Stream #0:0(und): Video: h264 (High) (avc1 / 0x31637661), yuv420p(progressive), 886x1920 [SAR 1:1 DAR 443:960], q=2-31, 21725 kb/s, 30 fps, 30 tbr, 15360 tbn (default)\n",
      "    Metadata:\n",
      "      handler_name    : VideoHandler\n",
      "      vendor_id       : [0][0][0][0]\n",
      "  Stream #0:1: Audio: mp3 (mp4a / 0x6134706D), 48000 Hz, stereo, fltp, 256 kb/s\n",
      "    Metadata:\n",
      "      encoder         : Lavc59.18\n",
      "Stream mapping:\n",
      "  Stream #0:0 -> #0:0 (copy)\n",
      "  Stream #1:0 -> #0:1 (copy)\n",
      "Press [q] to stop, [?] for help\n",
      "frame=  893 fps=0.0 q=-1.0 Lsize=   79900kB time=00:00:29.78 bitrate=21975.5kbits/s speed= 473x    \n",
      "video:78942kB audio:932kB subtitle:0kB other streams:0kB global headers:0kB muxing overhead: 0.033664%\n",
      "ffmpeg version 5.0.1 Copyright (c) 2000-2022 the FFmpeg developers\n",
      "  built with Apple clang version 13.1.6 (clang-1316.0.21.2)\n",
      "  configuration: --prefix=/usr/local/Cellar/ffmpeg/5.0.1 --enable-shared --enable-pthreads --enable-version3 --cc=clang --host-cflags= --host-ldflags= --enable-ffplay --enable-gnutls --enable-gpl --enable-libaom --enable-libbluray --enable-libdav1d --enable-libmp3lame --enable-libopus --enable-librav1e --enable-librist --enable-librubberband --enable-libsnappy --enable-libsrt --enable-libtesseract --enable-libtheora --enable-libvidstab --enable-libvmaf --enable-libvorbis --enable-libvpx --enable-libwebp --enable-libx264 --enable-libx265 --enable-libxml2 --enable-libxvid --enable-lzma --enable-libfontconfig --enable-libfreetype --enable-frei0r --enable-libass --enable-libopencore-amrnb --enable-libopencore-amrwb --enable-libopenjpeg --enable-libspeex --enable-libsoxr --enable-libzmq --enable-libzimg --disable-libjack --disable-indev=jack --enable-videotoolbox\n",
      "  libavutil      57. 17.100 / 57. 17.100\n",
      "  libavcodec     59. 18.100 / 59. 18.100\n",
      "  libavformat    59. 16.100 / 59. 16.100\n",
      "  libavdevice    59.  4.100 / 59.  4.100\n",
      "  libavfilter     8. 24.100 /  8. 24.100\n",
      "  libswscale      6.  4.100 /  6.  4.100\n",
      "  libswresample   4.  3.100 /  4.  3.100\n",
      "  libpostproc    56.  3.100 / 56.  3.100\n",
      "Input #0, mov,mp4,m4a,3gp,3g2,mj2, from '/Users/aking/Desktop/Temp/TmpVideoWithSound.mp4':\n",
      "  Metadata:\n",
      "    major_brand     : isom\n",
      "    minor_version   : 512\n",
      "    compatible_brands: isomiso2avc1mp41\n",
      "    encoder         : Lavf59.16.100\n",
      "  Duration: 00:00:29.79, start: 0.000000, bitrate: 21975 kb/s\n",
      "  Stream #0:0[0x1](und): Video: h264 (High) (avc1 / 0x31637661), yuv420p(progressive), 886x1920 [SAR 1:1 DAR 443:960], 21725 kb/s, 30 fps, 30 tbr, 15360 tbn (default)\n",
      "    Metadata:\n",
      "      handler_name    : VideoHandler\n",
      "      vendor_id       : [0][0][0][0]\n",
      "  Stream #0:1[0x2](und): Audio: mp3 (mp4a / 0x6134706D), 48000 Hz, stereo, fltp, 256 kb/s (default)\n",
      "    Metadata:\n",
      "      handler_name    : SoundHandler\n",
      "      vendor_id       : [0][0][0][0]\n",
      "Stream mapping:\n",
      "  Stream #0:0 (h264) -> scale:default (graph 0)\n",
      "  framerate:default (graph 0) -> Stream #0:0 (libx264)\n",
      "  Stream #0:1 -> #0:1 (mp3 (mp3float) -> aac (native))\n",
      "Press [q] to stop, [?] for help\n",
      "[Parsed_framerate_1 @ 0x7fb571718d00] time base:1/15360 -> 1/15360 exact:1\n",
      "[Parsed_framerate_1 @ 0x7fb571718d00] fps -> fps:30/1 scene score:8.200000 interpolate start:15 end:240\n",
      "[libx264 @ 0x7fb571708300] using SAR=1/1\n",
      "[libx264 @ 0x7fb571708300] using cpu capabilities: MMX2 SSE2Fast SSSE3 SSE4.2 AVX FMA3 BMI2 AVX2\n",
      "[libx264 @ 0x7fb571708300] profile High, level 4.0, 4:2:0, 8-bit\n",
      "[libx264 @ 0x7fb571708300] 264 - core 163 r3060 5db6aa6 - H.264/MPEG-4 AVC codec - Copyleft 2003-2021 - http://www.videolan.org/x264.html - options: cabac=1 ref=3 deblock=1:0:0 analyse=0x3:0x113 me=hex subme=7 psy=1 psy_rd=1.00:0.00 mixed_ref=1 me_range=16 chroma_me=1 trellis=1 8x8dct=1 cqm=0 deadzone=21,11 fast_pskip=1 chroma_qp_offset=-2 threads=12 lookahead_threads=2 sliced_threads=0 nr=0 decimate=1 interlaced=0 bluray_compat=0 constrained_intra=0 bframes=3 b_pyramid=2 b_adapt=1 b_bias=0 direct=1 weightb=1 open_gop=0 weightp=2 keyint=250 keyint_min=25 scenecut=40 intra_refresh=0 rc_lookahead=40 rc=crf mbtree=1 crf=23.0 qcomp=0.60 qpmin=0 qpmax=69 qpstep=4 ip_ratio=1.40 aq=1:1.00\n",
      "Output #0, mp4, to '/Users/aking/Desktop/Temp/ShrinkTutorial886.mp4':\n",
      "  Metadata:\n",
      "    major_brand     : isom\n",
      "    minor_version   : 512\n",
      "    compatible_brands: isomiso2avc1mp41\n",
      "    encoder         : Lavf59.16.100\n",
      "  Stream #0:0: Video: h264 (avc1 / 0x31637661), yuv420p(progressive), 886x1920 [SAR 1:1 DAR 443:960], q=2-31, 30 fps, 15360 tbn\n",
      "    Metadata:\n",
      "      encoder         : Lavc59.18.100 libx264\n",
      "    Side data:\n",
      "      cpb: bitrate max/min/avg: 0/0/0 buffer size: 0 vbv_delay: N/A\n",
      "  Stream #0:1(und): Audio: aac (LC) (mp4a / 0x6134706D), 48000 Hz, stereo, fltp, 128 kb/s (default)\n",
      "    Metadata:\n",
      "      handler_name    : SoundHandler\n",
      "      vendor_id       : [0][0][0][0]\n",
      "      encoder         : Lavc59.18.100 aac\n"
     ]
    },
    {
     "name": "stderr",
     "output_type": "stream",
     "text": [
      "frame=  893 fps= 41 q=-1.0 Lsize=    7802kB time=00:00:29.80 bitrate=2144.5kbits/s speed=1.38x    \n",
      "video:7760kB audio:8kB subtitle:0kB other streams:0kB global headers:0kB muxing overhead: 0.429150%\n",
      "[libx264 @ 0x7fb571708300] frame I:10    Avg QP:17.54  size: 60154\n",
      "[libx264 @ 0x7fb571708300] frame P:238   Avg QP:21.58  size: 17363\n",
      "[libx264 @ 0x7fb571708300] frame B:645   Avg QP:23.73  size:  4980\n",
      "[libx264 @ 0x7fb571708300] consecutive B-frames:  2.5%  2.9%  2.4% 92.3%\n",
      "[libx264 @ 0x7fb571708300] mb I  I16..4: 23.0% 66.9% 10.1%\n",
      "[libx264 @ 0x7fb571708300] mb P  I16..4:  6.1% 11.5%  0.9%  P16..4: 28.6%  5.5%  3.2%  0.0%  0.0%    skip:44.1%\n",
      "[libx264 @ 0x7fb571708300] mb B  I16..4:  0.7%  0.6%  0.0%  B16..8: 26.9%  1.5%  0.1%  direct: 2.1%  skip:68.1%  L0:43.6% L1:53.7% BI: 2.7%\n",
      "[libx264 @ 0x7fb571708300] 8x8 transform intra:60.8% inter:87.7%\n",
      "[libx264 @ 0x7fb571708300] coded y,uvDC,uvAC intra: 31.5% 29.5% 7.6% inter: 8.0% 10.2% 0.3%\n",
      "[libx264 @ 0x7fb571708300] i16 v,h,dc,p: 34% 40% 13% 13%\n",
      "[libx264 @ 0x7fb571708300] i8 v,h,dc,ddl,ddr,vr,hd,vl,hu: 23% 24% 39%  2%  2%  2%  3%  2%  2%\n",
      "[libx264 @ 0x7fb571708300] i4 v,h,dc,ddl,ddr,vr,hd,vl,hu: 29% 29% 14%  4%  6%  6%  5%  4%  4%\n",
      "[libx264 @ 0x7fb571708300] i8c dc,h,v,p: 66% 18% 14%  1%\n",
      "[libx264 @ 0x7fb571708300] Weighted P-Frames: Y:5.5% UV:4.6%\n",
      "[libx264 @ 0x7fb571708300] ref P L0: 61.4% 11.8% 19.1%  7.7%  0.1%\n",
      "[libx264 @ 0x7fb571708300] ref B L0: 85.9% 11.1%  3.0%\n",
      "[libx264 @ 0x7fb571708300] ref B L1: 94.1%  5.9%\n",
      "[libx264 @ 0x7fb571708300] kb/s:2135.50\n",
      "[aac @ 0x7fb5717098c0] Qavg: 65536.000\n"
     ]
    },
    {
     "name": "stdout",
     "output_type": "stream",
     "text": [
      "轉換完成\n",
      "原始寬度498.0 高度1080.0 FPS30.0\n"
     ]
    },
    {
     "name": "stderr",
     "output_type": "stream",
     "text": [
      "ffmpeg version 5.0.1 Copyright (c) 2000-2022 the FFmpeg developers\n",
      "  built with Apple clang version 13.1.6 (clang-1316.0.21.2)\n",
      "  configuration: --prefix=/usr/local/Cellar/ffmpeg/5.0.1 --enable-shared --enable-pthreads --enable-version3 --cc=clang --host-cflags= --host-ldflags= --enable-ffplay --enable-gnutls --enable-gpl --enable-libaom --enable-libbluray --enable-libdav1d --enable-libmp3lame --enable-libopus --enable-librav1e --enable-librist --enable-librubberband --enable-libsnappy --enable-libsrt --enable-libtesseract --enable-libtheora --enable-libvidstab --enable-libvmaf --enable-libvorbis --enable-libvpx --enable-libwebp --enable-libx264 --enable-libx265 --enable-libxml2 --enable-libxvid --enable-lzma --enable-libfontconfig --enable-libfreetype --enable-frei0r --enable-libass --enable-libopencore-amrnb --enable-libopencore-amrwb --enable-libopenjpeg --enable-libspeex --enable-libsoxr --enable-libzmq --enable-libzimg --disable-libjack --disable-indev=jack --enable-videotoolbox\n",
      "  libavutil      57. 17.100 / 57. 17.100\n",
      "  libavcodec     59. 18.100 / 59. 18.100\n",
      "  libavformat    59. 16.100 / 59. 16.100\n",
      "  libavdevice    59.  4.100 / 59.  4.100\n",
      "  libavfilter     8. 24.100 /  8. 24.100\n",
      "  libswscale      6.  4.100 /  6.  4.100\n",
      "  libswresample   4.  3.100 /  4.  3.100\n",
      "  libpostproc    56.  3.100 / 56.  3.100\n",
      "[mov,mp4,m4a,3gp,3g2,mj2 @ 0x7f7c94704b40] stream 0, timescale not set\n",
      "Guessed Channel Layout for Input Stream #0.0 : stereo\n",
      "Input #0, mov,mp4,m4a,3gp,3g2,mj2, from '/Users/aking/Desktop/Temp/ShrinkTutorial.mov':\n",
      "  Metadata:\n",
      "    major_brand     : qt  \n",
      "    minor_version   : 0\n",
      "    compatible_brands: qt  \n",
      "    creation_time   : 2022-04-27T06:25:41.000000Z\n",
      "    keywords        : iMovie\n",
      "    title           : App 預覽\n",
      "    com.apple.quicktime.author: \n",
      "    com.apple.quicktime.keywords: iMovie\n",
      "    com.apple.quicktime.displayname: App 預覽\n",
      "    com.apple.quicktime.title: App 預覽\n",
      "    com.apple.quicktime.description: ShrinkTutorial\n",
      "  Duration: 00:00:29.77, start: 0.000000, bitrate: 51392 kb/s\n",
      "  Stream #0:0[0x1](zho): Audio: pcm_s24le (lpcm / 0x6D63706C), 48000 Hz, stereo, s32 (24 bit), 2304 kb/s (default)\n",
      "    Metadata:\n",
      "      creation_time   : 2022-04-27T06:25:41.000000Z\n",
      "      handler_name    : Core Media Audio\n",
      "      vendor_id       : [0][0][0][0]\n",
      "  Stream #0:1[0x2](und): Video: prores (Standard) (apcn / 0x6E637061), yuv422p10le(tv, bt709, progressive), 498x1080, 49074 kb/s, SAR 1:1 DAR 83:180, 30 fps, 30 tbr, 30k tbn (default)\n",
      "    Metadata:\n",
      "      creation_time   : 2022-04-27T06:25:41.000000Z\n",
      "      handler_name    : Core Media Video\n",
      "      vendor_id       : appl\n",
      "      encoder         : Apple ProRes 422\n",
      "      timecode        : 00:00:00:00\n",
      "  Stream #0:2[0x3](und): Data: none (tmcd / 0x64636D74), 0 kb/s (default)\n",
      "    Metadata:\n",
      "      creation_time   : 2022-04-27T06:25:41.000000Z\n",
      "      handler_name    : Core Media Time Code\n",
      "      timecode        : 00:00:00:00\n",
      "  Stream #0:3[0x0]: Video: mjpeg (Progressive), yuvj420p(pc, bt470bg/unknown/unknown), 498x1080 [SAR 72:72 DAR 83:180], 90k tbr, 90k tbn (attached pic)\n",
      "Stream mapping:\n",
      "  Stream #0:0 -> #0:0 (pcm_s24le (native) -> mp3 (libmp3lame))\n",
      "Press [q] to stop, [?] for help\n",
      "Output #0, mp3, to '/Users/aking/Desktop/Temp/sound.mp3':\n",
      "  Metadata:\n",
      "    major_brand     : qt  \n",
      "    minor_version   : 0\n",
      "    compatible_brands: qt  \n",
      "    com.apple.quicktime.description: ShrinkTutorial\n",
      "    keywords        : iMovie\n",
      "    TIT2            : App 預覽\n",
      "    com.apple.quicktime.author: \n",
      "    com.apple.quicktime.keywords: iMovie\n",
      "    com.apple.quicktime.displayname: App 預覽\n",
      "    com.apple.quicktime.title: App 預覽\n",
      "    TSSE            : Lavf59.16.100\n",
      "  Stream #0:0(zho): Audio: mp3, 48000 Hz, stereo, s32p, 256 kb/s (default)\n",
      "    Metadata:\n",
      "      creation_time   : 2022-04-27T06:25:41.000000Z\n",
      "      handler_name    : Core Media Audio\n",
      "      vendor_id       : [0][0][0][0]\n",
      "      encoder         : Lavc59.18.100 libmp3lame\n",
      "size=     933kB time=00:00:29.78 bitrate= 256.5kbits/s speed= 169x    \n",
      "video:0kB audio:932kB subtitle:0kB other streams:0kB global headers:0kB muxing overhead: 0.125491%\n",
      "ffmpeg version 5.0.1 Copyright (c) 2000-2022 the FFmpeg developers\n",
      "  built with Apple clang version 13.1.6 (clang-1316.0.21.2)\n",
      "  configuration: --prefix=/usr/local/Cellar/ffmpeg/5.0.1 --enable-shared --enable-pthreads --enable-version3 --cc=clang --host-cflags= --host-ldflags= --enable-ffplay --enable-gnutls --enable-gpl --enable-libaom --enable-libbluray --enable-libdav1d --enable-libmp3lame --enable-libopus --enable-librav1e --enable-librist --enable-librubberband --enable-libsnappy --enable-libsrt --enable-libtesseract --enable-libtheora --enable-libvidstab --enable-libvmaf --enable-libvorbis --enable-libvpx --enable-libwebp --enable-libx264 --enable-libx265 --enable-libxml2 --enable-libxvid --enable-lzma --enable-libfontconfig --enable-libfreetype --enable-frei0r --enable-libass --enable-libopencore-amrnb --enable-libopencore-amrwb --enable-libopenjpeg --enable-libspeex --enable-libsoxr --enable-libzmq --enable-libzimg --disable-libjack --disable-indev=jack --enable-videotoolbox\n",
      "  libavutil      57. 17.100 / 57. 17.100\n",
      "  libavcodec     59. 18.100 / 59. 18.100\n",
      "  libavformat    59. 16.100 / 59. 16.100\n",
      "  libavdevice    59.  4.100 / 59.  4.100\n",
      "  libavfilter     8. 24.100 /  8. 24.100\n",
      "  libswscale      6.  4.100 /  6.  4.100\n",
      "  libswresample   4.  3.100 /  4.  3.100\n",
      "  libpostproc    56.  3.100 / 56.  3.100\n",
      "Input #0, mov,mp4,m4a,3gp,3g2,mj2, from '/Users/aking/Desktop/Temp/TmpVideo.mp4':\n",
      "  Metadata:\n",
      "    major_brand     : isom\n",
      "    minor_version   : 512\n",
      "    compatible_brands: isomiso2avc1mp41\n",
      "    encoder         : Lavf58.76.100\n",
      "  Duration: 00:00:29.77, start: 0.000000, bitrate: 25976 kb/s\n",
      "  Stream #0:0[0x1](und): Video: h264 (High) (avc1 / 0x31637661), yuv420p(progressive), 1080x1920 [SAR 1:1 DAR 9:16], 25973 kb/s, 30 fps, 30 tbr, 15360 tbn (default)\n",
      "    Metadata:\n",
      "      handler_name    : VideoHandler\n",
      "      vendor_id       : [0][0][0][0]\n",
      "Input #1, mp3, from '/Users/aking/Desktop/Temp/sound.mp3':\n",
      "  Metadata:\n",
      "    major_brand     : qt  \n",
      "    minor_version   : 0\n",
      "    compatible_brands: qt  \n",
      "    com.apple.quicktime.description: ShrinkTutorial\n",
      "    keywords        : iMovie\n",
      "    title           : App 預覽\n",
      "    com.apple.quicktime.author: \n",
      "    com.apple.quicktime.keywords: iMovie\n",
      "    com.apple.quicktime.displayname: App 預覽\n",
      "    com.apple.quicktime.title: App 預覽\n",
      "    encoder         : Lavf59.16.100\n",
      "  Duration: 00:00:29.81, start: 0.023021, bitrate: 256 kb/s\n",
      "  Stream #1:0: Audio: mp3, 48000 Hz, stereo, fltp, 256 kb/s\n",
      "    Metadata:\n",
      "      encoder         : Lavc59.18\n",
      "Output #0, mp4, to '/Users/aking/Desktop/Temp/TmpVideoWithSound.mp4':\n",
      "  Metadata:\n",
      "    major_brand     : isom\n",
      "    minor_version   : 512\n",
      "    compatible_brands: isomiso2avc1mp41\n",
      "    encoder         : Lavf59.16.100\n",
      "  Stream #0:0(und): Video: h264 (High) (avc1 / 0x31637661), yuv420p(progressive), 1080x1920 [SAR 1:1 DAR 9:16], q=2-31, 25973 kb/s, 30 fps, 30 tbr, 15360 tbn (default)\n",
      "    Metadata:\n",
      "      handler_name    : VideoHandler\n",
      "      vendor_id       : [0][0][0][0]\n",
      "  Stream #0:1: Audio: mp3 (mp4a / 0x6134706D), 48000 Hz, stereo, fltp, 256 kb/s\n",
      "    Metadata:\n",
      "      encoder         : Lavc59.18\n",
      "Stream mapping:\n",
      "  Stream #0:0 -> #0:0 (copy)\n",
      "  Stream #1:0 -> #0:1 (copy)\n",
      "Press [q] to stop, [?] for help\n",
      "frame=  893 fps=0.0 q=-1.0 Lsize=   95336kB time=00:00:29.78 bitrate=26221.1kbits/s speed= 442x    \n",
      "video:94378kB audio:932kB subtitle:0kB other streams:0kB global headers:0kB muxing overhead: 0.028204%\n",
      "ffmpeg version 5.0.1 Copyright (c) 2000-2022 the FFmpeg developers\n",
      "  built with Apple clang version 13.1.6 (clang-1316.0.21.2)\n",
      "  configuration: --prefix=/usr/local/Cellar/ffmpeg/5.0.1 --enable-shared --enable-pthreads --enable-version3 --cc=clang --host-cflags= --host-ldflags= --enable-ffplay --enable-gnutls --enable-gpl --enable-libaom --enable-libbluray --enable-libdav1d --enable-libmp3lame --enable-libopus --enable-librav1e --enable-librist --enable-librubberband --enable-libsnappy --enable-libsrt --enable-libtesseract --enable-libtheora --enable-libvidstab --enable-libvmaf --enable-libvorbis --enable-libvpx --enable-libwebp --enable-libx264 --enable-libx265 --enable-libxml2 --enable-libxvid --enable-lzma --enable-libfontconfig --enable-libfreetype --enable-frei0r --enable-libass --enable-libopencore-amrnb --enable-libopencore-amrwb --enable-libopenjpeg --enable-libspeex --enable-libsoxr --enable-libzmq --enable-libzimg --disable-libjack --disable-indev=jack --enable-videotoolbox\n",
      "  libavutil      57. 17.100 / 57. 17.100\n",
      "  libavcodec     59. 18.100 / 59. 18.100\n",
      "  libavformat    59. 16.100 / 59. 16.100\n",
      "  libavdevice    59.  4.100 / 59.  4.100\n",
      "  libavfilter     8. 24.100 /  8. 24.100\n",
      "  libswscale      6.  4.100 /  6.  4.100\n",
      "  libswresample   4.  3.100 /  4.  3.100\n",
      "  libpostproc    56.  3.100 / 56.  3.100\n",
      "Input #0, mov,mp4,m4a,3gp,3g2,mj2, from '/Users/aking/Desktop/Temp/TmpVideoWithSound.mp4':\n",
      "  Metadata:\n",
      "    major_brand     : isom\n",
      "    minor_version   : 512\n",
      "    compatible_brands: isomiso2avc1mp41\n",
      "    encoder         : Lavf59.16.100\n",
      "  Duration: 00:00:29.79, start: 0.000000, bitrate: 26221 kb/s\n",
      "  Stream #0:0[0x1](und): Video: h264 (High) (avc1 / 0x31637661), yuv420p(progressive), 1080x1920 [SAR 1:1 DAR 9:16], 25973 kb/s, 30 fps, 30 tbr, 15360 tbn (default)\n",
      "    Metadata:\n",
      "      handler_name    : VideoHandler\n",
      "      vendor_id       : [0][0][0][0]\n",
      "  Stream #0:1[0x2](und): Audio: mp3 (mp4a / 0x6134706D), 48000 Hz, stereo, fltp, 256 kb/s (default)\n",
      "    Metadata:\n",
      "      handler_name    : SoundHandler\n",
      "      vendor_id       : [0][0][0][0]\n",
      "Stream mapping:\n",
      "  Stream #0:0 (h264) -> scale:default (graph 0)\n",
      "  framerate:default (graph 0) -> Stream #0:0 (libx264)\n",
      "  Stream #0:1 -> #0:1 (mp3 (mp3float) -> aac (native))\n",
      "Press [q] to stop, [?] for help\n"
     ]
    },
    {
     "name": "stderr",
     "output_type": "stream",
     "text": [
      "[Parsed_framerate_1 @ 0x7fc047c04900] time base:1/15360 -> 1/15360 exact:1\n",
      "[Parsed_framerate_1 @ 0x7fc047c04900] fps -> fps:30/1 scene score:8.200000 interpolate start:15 end:240\n",
      "[libx264 @ 0x7fc042206d00] using SAR=1/1\n",
      "[libx264 @ 0x7fc042206d00] using cpu capabilities: MMX2 SSE2Fast SSSE3 SSE4.2 AVX FMA3 BMI2 AVX2\n",
      "[libx264 @ 0x7fc042206d00] profile High, level 4.0, 4:2:0, 8-bit\n",
      "[libx264 @ 0x7fc042206d00] 264 - core 163 r3060 5db6aa6 - H.264/MPEG-4 AVC codec - Copyleft 2003-2021 - http://www.videolan.org/x264.html - options: cabac=1 ref=3 deblock=1:0:0 analyse=0x3:0x113 me=hex subme=7 psy=1 psy_rd=1.00:0.00 mixed_ref=1 me_range=16 chroma_me=1 trellis=1 8x8dct=1 cqm=0 deadzone=21,11 fast_pskip=1 chroma_qp_offset=-2 threads=12 lookahead_threads=2 sliced_threads=0 nr=0 decimate=1 interlaced=0 bluray_compat=0 constrained_intra=0 bframes=3 b_pyramid=2 b_adapt=1 b_bias=0 direct=1 weightb=1 open_gop=0 weightp=2 keyint=250 keyint_min=25 scenecut=40 intra_refresh=0 rc_lookahead=40 rc=crf mbtree=1 crf=23.0 qcomp=0.60 qpmin=0 qpmax=69 qpstep=4 ip_ratio=1.40 aq=1:1.00\n",
      "Output #0, mp4, to '/Users/aking/Desktop/Temp/ShrinkTutorial1080.mp4':\n",
      "  Metadata:\n",
      "    major_brand     : isom\n",
      "    minor_version   : 512\n",
      "    compatible_brands: isomiso2avc1mp41\n",
      "    encoder         : Lavf59.16.100\n",
      "  Stream #0:0: Video: h264 (avc1 / 0x31637661), yuv420p(progressive), 1080x1920 [SAR 1:1 DAR 9:16], q=2-31, 30 fps, 15360 tbn\n",
      "    Metadata:\n",
      "      encoder         : Lavc59.18.100 libx264\n",
      "    Side data:\n",
      "      cpb: bitrate max/min/avg: 0/0/0 buffer size: 0 vbv_delay: N/A\n",
      "  Stream #0:1(und): Audio: aac (LC) (mp4a / 0x6134706D), 48000 Hz, stereo, fltp, 128 kb/s (default)\n",
      "    Metadata:\n",
      "      handler_name    : SoundHandler\n",
      "      vendor_id       : [0][0][0][0]\n",
      "      encoder         : Lavc59.18.100 aac\n",
      "frame=  893 fps= 35 q=-1.0 Lsize=    9616kB time=00:00:29.80 bitrate=2643.1kbits/s speed=1.18x    \n",
      "video:9574kB audio:8kB subtitle:0kB other streams:0kB global headers:0kB muxing overhead: 0.347590%\n",
      "[libx264 @ 0x7fc042206d00] frame I:10    Avg QP:17.99  size: 69010\n",
      "[libx264 @ 0x7fc042206d00] frame P:239   Avg QP:21.76  size: 20826\n",
      "[libx264 @ 0x7fc042206d00] frame B:644   Avg QP:23.78  size:  6422\n",
      "[libx264 @ 0x7fc042206d00] consecutive B-frames:  2.8%  2.2%  2.7% 92.3%\n",
      "[libx264 @ 0x7fc042206d00] mb I  I16..4: 23.5% 66.9%  9.6%\n",
      "[libx264 @ 0x7fc042206d00] mb P  I16..4:  6.5% 13.4%  0.7%  P16..4: 28.3%  5.7%  3.1%  0.0%  0.0%    skip:42.3%\n",
      "[libx264 @ 0x7fc042206d00] mb B  I16..4:  0.8%  0.7%  0.0%  B16..8: 26.6%  1.6%  0.2%  direct: 2.1%  skip:68.0%  L0:43.7% L1:53.7% BI: 2.6%\n",
      "[libx264 @ 0x7fc042206d00] 8x8 transform intra:62.7% inter:89.1%\n",
      "[libx264 @ 0x7fc042206d00] coded y,uvDC,uvAC intra: 31.3% 28.5% 6.6% inter: 8.5% 10.1% 0.3%\n",
      "[libx264 @ 0x7fc042206d00] i16 v,h,dc,p: 34% 39% 13% 14%\n",
      "[libx264 @ 0x7fc042206d00] i8 v,h,dc,ddl,ddr,vr,hd,vl,hu: 23% 24% 38%  2%  2%  3%  3%  2%  2%\n",
      "[libx264 @ 0x7fc042206d00] i4 v,h,dc,ddl,ddr,vr,hd,vl,hu: 28% 28% 14%  4%  7%  6%  6%  4%  4%\n",
      "[libx264 @ 0x7fc042206d00] i8c dc,h,v,p: 68% 17% 14%  1%\n",
      "[libx264 @ 0x7fc042206d00] Weighted P-Frames: Y:5.4% UV:4.6%\n",
      "[libx264 @ 0x7fc042206d00] ref P L0: 60.3% 11.8% 20.1%  7.6%  0.1%\n",
      "[libx264 @ 0x7fc042206d00] ref B L0: 84.6% 12.1%  3.2%\n",
      "[libx264 @ 0x7fc042206d00] ref B L1: 94.1%  5.9%\n",
      "[libx264 @ 0x7fc042206d00] kb/s:2634.69\n",
      "[aac @ 0x7fc0422083c0] Qavg: 65536.000\n"
     ]
    },
    {
     "name": "stdout",
     "output_type": "stream",
     "text": [
      "轉換完成\n",
      "原始寬度498.0 高度1080.0 FPS30.0\n"
     ]
    },
    {
     "name": "stderr",
     "output_type": "stream",
     "text": [
      "ffmpeg version 5.0.1 Copyright (c) 2000-2022 the FFmpeg developers\n",
      "  built with Apple clang version 13.1.6 (clang-1316.0.21.2)\n",
      "  configuration: --prefix=/usr/local/Cellar/ffmpeg/5.0.1 --enable-shared --enable-pthreads --enable-version3 --cc=clang --host-cflags= --host-ldflags= --enable-ffplay --enable-gnutls --enable-gpl --enable-libaom --enable-libbluray --enable-libdav1d --enable-libmp3lame --enable-libopus --enable-librav1e --enable-librist --enable-librubberband --enable-libsnappy --enable-libsrt --enable-libtesseract --enable-libtheora --enable-libvidstab --enable-libvmaf --enable-libvorbis --enable-libvpx --enable-libwebp --enable-libx264 --enable-libx265 --enable-libxml2 --enable-libxvid --enable-lzma --enable-libfontconfig --enable-libfreetype --enable-frei0r --enable-libass --enable-libopencore-amrnb --enable-libopencore-amrwb --enable-libopenjpeg --enable-libspeex --enable-libsoxr --enable-libzmq --enable-libzimg --disable-libjack --disable-indev=jack --enable-videotoolbox\n",
      "  libavutil      57. 17.100 / 57. 17.100\n",
      "  libavcodec     59. 18.100 / 59. 18.100\n",
      "  libavformat    59. 16.100 / 59. 16.100\n",
      "  libavdevice    59.  4.100 / 59.  4.100\n",
      "  libavfilter     8. 24.100 /  8. 24.100\n",
      "  libswscale      6.  4.100 /  6.  4.100\n",
      "  libswresample   4.  3.100 /  4.  3.100\n",
      "  libpostproc    56.  3.100 / 56.  3.100\n",
      "[mov,mp4,m4a,3gp,3g2,mj2 @ 0x7fd00b704b40] stream 0, timescale not set\n",
      "Guessed Channel Layout for Input Stream #0.0 : stereo\n",
      "Input #0, mov,mp4,m4a,3gp,3g2,mj2, from '/Users/aking/Desktop/Temp/ShrinkTutorial.mov':\n",
      "  Metadata:\n",
      "    major_brand     : qt  \n",
      "    minor_version   : 0\n",
      "    compatible_brands: qt  \n",
      "    creation_time   : 2022-04-27T06:25:41.000000Z\n",
      "    keywords        : iMovie\n",
      "    title           : App 預覽\n",
      "    com.apple.quicktime.author: \n",
      "    com.apple.quicktime.keywords: iMovie\n",
      "    com.apple.quicktime.displayname: App 預覽\n",
      "    com.apple.quicktime.title: App 預覽\n",
      "    com.apple.quicktime.description: ShrinkTutorial\n",
      "  Duration: 00:00:29.77, start: 0.000000, bitrate: 51392 kb/s\n",
      "  Stream #0:0[0x1](zho): Audio: pcm_s24le (lpcm / 0x6D63706C), 48000 Hz, stereo, s32 (24 bit), 2304 kb/s (default)\n",
      "    Metadata:\n",
      "      creation_time   : 2022-04-27T06:25:41.000000Z\n",
      "      handler_name    : Core Media Audio\n",
      "      vendor_id       : [0][0][0][0]\n",
      "  Stream #0:1[0x2](und): Video: prores (Standard) (apcn / 0x6E637061), yuv422p10le(tv, bt709, progressive), 498x1080, 49074 kb/s, SAR 1:1 DAR 83:180, 30 fps, 30 tbr, 30k tbn (default)\n",
      "    Metadata:\n",
      "      creation_time   : 2022-04-27T06:25:41.000000Z\n",
      "      handler_name    : Core Media Video\n",
      "      vendor_id       : appl\n",
      "      encoder         : Apple ProRes 422\n",
      "      timecode        : 00:00:00:00\n",
      "  Stream #0:2[0x3](und): Data: none (tmcd / 0x64636D74), 0 kb/s (default)\n",
      "    Metadata:\n",
      "      creation_time   : 2022-04-27T06:25:41.000000Z\n",
      "      handler_name    : Core Media Time Code\n",
      "      timecode        : 00:00:00:00\n",
      "  Stream #0:3[0x0]: Video: mjpeg (Progressive), yuvj420p(pc, bt470bg/unknown/unknown), 498x1080 [SAR 72:72 DAR 83:180], 90k tbr, 90k tbn (attached pic)\n",
      "Stream mapping:\n",
      "  Stream #0:0 -> #0:0 (pcm_s24le (native) -> mp3 (libmp3lame))\n",
      "Press [q] to stop, [?] for help\n",
      "Output #0, mp3, to '/Users/aking/Desktop/Temp/sound.mp3':\n",
      "  Metadata:\n",
      "    major_brand     : qt  \n",
      "    minor_version   : 0\n",
      "    compatible_brands: qt  \n",
      "    com.apple.quicktime.description: ShrinkTutorial\n",
      "    keywords        : iMovie\n",
      "    TIT2            : App 預覽\n",
      "    com.apple.quicktime.author: \n",
      "    com.apple.quicktime.keywords: iMovie\n",
      "    com.apple.quicktime.displayname: App 預覽\n",
      "    com.apple.quicktime.title: App 預覽\n",
      "    TSSE            : Lavf59.16.100\n",
      "  Stream #0:0(zho): Audio: mp3, 48000 Hz, stereo, s32p, 256 kb/s (default)\n",
      "    Metadata:\n",
      "      creation_time   : 2022-04-27T06:25:41.000000Z\n",
      "      handler_name    : Core Media Audio\n",
      "      vendor_id       : [0][0][0][0]\n",
      "      encoder         : Lavc59.18.100 libmp3lame\n",
      "size=     933kB time=00:00:29.78 bitrate= 256.5kbits/s speed= 121x    \n",
      "video:0kB audio:932kB subtitle:0kB other streams:0kB global headers:0kB muxing overhead: 0.125491%\n",
      "ffmpeg version 5.0.1 Copyright (c) 2000-2022 the FFmpeg developers\n",
      "  built with Apple clang version 13.1.6 (clang-1316.0.21.2)\n",
      "  configuration: --prefix=/usr/local/Cellar/ffmpeg/5.0.1 --enable-shared --enable-pthreads --enable-version3 --cc=clang --host-cflags= --host-ldflags= --enable-ffplay --enable-gnutls --enable-gpl --enable-libaom --enable-libbluray --enable-libdav1d --enable-libmp3lame --enable-libopus --enable-librav1e --enable-librist --enable-librubberband --enable-libsnappy --enable-libsrt --enable-libtesseract --enable-libtheora --enable-libvidstab --enable-libvmaf --enable-libvorbis --enable-libvpx --enable-libwebp --enable-libx264 --enable-libx265 --enable-libxml2 --enable-libxvid --enable-lzma --enable-libfontconfig --enable-libfreetype --enable-frei0r --enable-libass --enable-libopencore-amrnb --enable-libopencore-amrwb --enable-libopenjpeg --enable-libspeex --enable-libsoxr --enable-libzmq --enable-libzimg --disable-libjack --disable-indev=jack --enable-videotoolbox\n",
      "  libavutil      57. 17.100 / 57. 17.100\n",
      "  libavcodec     59. 18.100 / 59. 18.100\n",
      "  libavformat    59. 16.100 / 59. 16.100\n",
      "  libavdevice    59.  4.100 / 59.  4.100\n",
      "  libavfilter     8. 24.100 /  8. 24.100\n",
      "  libswscale      6.  4.100 /  6.  4.100\n",
      "  libswresample   4.  3.100 /  4.  3.100\n",
      "  libpostproc    56.  3.100 / 56.  3.100\n",
      "Input #0, mov,mp4,m4a,3gp,3g2,mj2, from '/Users/aking/Desktop/Temp/TmpVideo.mp4':\n",
      "  Metadata:\n",
      "    major_brand     : isom\n",
      "    minor_version   : 512\n",
      "    compatible_brands: isomiso2avc1mp41\n",
      "    encoder         : Lavf58.76.100\n",
      "  Duration: 00:00:29.77, start: 0.000000, bitrate: 24112 kb/s\n",
      "  Stream #0:0[0x1](und): Video: h264 (High) (avc1 / 0x31637661), yuv420p(progressive), 1200x1600 [SAR 1:1 DAR 3:4], 24108 kb/s, 30 fps, 30 tbr, 15360 tbn (default)\n",
      "    Metadata:\n",
      "      handler_name    : VideoHandler\n",
      "      vendor_id       : [0][0][0][0]\n",
      "Input #1, mp3, from '/Users/aking/Desktop/Temp/sound.mp3':\n",
      "  Metadata:\n",
      "    major_brand     : qt  \n",
      "    minor_version   : 0\n",
      "    compatible_brands: qt  \n",
      "    com.apple.quicktime.description: ShrinkTutorial\n",
      "    keywords        : iMovie\n",
      "    title           : App 預覽\n",
      "    com.apple.quicktime.author: \n",
      "    com.apple.quicktime.keywords: iMovie\n",
      "    com.apple.quicktime.displayname: App 預覽\n",
      "    com.apple.quicktime.title: App 預覽\n",
      "    encoder         : Lavf59.16.100\n",
      "  Duration: 00:00:29.81, start: 0.023021, bitrate: 256 kb/s\n",
      "  Stream #1:0: Audio: mp3, 48000 Hz, stereo, fltp, 256 kb/s\n",
      "    Metadata:\n",
      "      encoder         : Lavc59.18\n",
      "Output #0, mp4, to '/Users/aking/Desktop/Temp/TmpVideoWithSound.mp4':\n",
      "  Metadata:\n",
      "    major_brand     : isom\n",
      "    minor_version   : 512\n",
      "    compatible_brands: isomiso2avc1mp41\n",
      "    encoder         : Lavf59.16.100\n",
      "  Stream #0:0(und): Video: h264 (High) (avc1 / 0x31637661), yuv420p(progressive), 1200x1600 [SAR 1:1 DAR 3:4], q=2-31, 24108 kb/s, 30 fps, 30 tbr, 15360 tbn (default)\n",
      "    Metadata:\n",
      "      handler_name    : VideoHandler\n",
      "      vendor_id       : [0][0][0][0]\n",
      "  Stream #0:1: Audio: mp3 (mp4a / 0x6134706D), 48000 Hz, stereo, fltp, 256 kb/s\n",
      "    Metadata:\n",
      "      encoder         : Lavc59.18\n",
      "Stream mapping:\n",
      "  Stream #0:0 -> #0:0 (copy)\n",
      "  Stream #1:0 -> #0:1 (copy)\n",
      "Press [q] to stop, [?] for help\n",
      "frame=  893 fps=0.0 q=-1.0 Lsize=   88561kB time=00:00:29.78 bitrate=24357.7kbits/s speed= 255x    \n",
      "video:87603kB audio:932kB subtitle:0kB other streams:0kB global headers:0kB muxing overhead: 0.030383%\n",
      "ffmpeg version 5.0.1 Copyright (c) 2000-2022 the FFmpeg developers\n",
      "  built with Apple clang version 13.1.6 (clang-1316.0.21.2)\n",
      "  configuration: --prefix=/usr/local/Cellar/ffmpeg/5.0.1 --enable-shared --enable-pthreads --enable-version3 --cc=clang --host-cflags= --host-ldflags= --enable-ffplay --enable-gnutls --enable-gpl --enable-libaom --enable-libbluray --enable-libdav1d --enable-libmp3lame --enable-libopus --enable-librav1e --enable-librist --enable-librubberband --enable-libsnappy --enable-libsrt --enable-libtesseract --enable-libtheora --enable-libvidstab --enable-libvmaf --enable-libvorbis --enable-libvpx --enable-libwebp --enable-libx264 --enable-libx265 --enable-libxml2 --enable-libxvid --enable-lzma --enable-libfontconfig --enable-libfreetype --enable-frei0r --enable-libass --enable-libopencore-amrnb --enable-libopencore-amrwb --enable-libopenjpeg --enable-libspeex --enable-libsoxr --enable-libzmq --enable-libzimg --disable-libjack --disable-indev=jack --enable-videotoolbox\n",
      "  libavutil      57. 17.100 / 57. 17.100\n",
      "  libavcodec     59. 18.100 / 59. 18.100\n",
      "  libavformat    59. 16.100 / 59. 16.100\n",
      "  libavdevice    59.  4.100 / 59.  4.100\n",
      "  libavfilter     8. 24.100 /  8. 24.100\n",
      "  libswscale      6.  4.100 /  6.  4.100\n",
      "  libswresample   4.  3.100 /  4.  3.100\n",
      "  libpostproc    56.  3.100 / 56.  3.100\n",
      "Input #0, mov,mp4,m4a,3gp,3g2,mj2, from '/Users/aking/Desktop/Temp/TmpVideoWithSound.mp4':\n",
      "  Metadata:\n",
      "    major_brand     : isom\n",
      "    minor_version   : 512\n",
      "    compatible_brands: isomiso2avc1mp41\n",
      "    encoder         : Lavf59.16.100\n",
      "  Duration: 00:00:29.79, start: 0.000000, bitrate: 24357 kb/s\n",
      "  Stream #0:0[0x1](und): Video: h264 (High) (avc1 / 0x31637661), yuv420p(progressive), 1200x1600 [SAR 1:1 DAR 3:4], 24108 kb/s, 30 fps, 30 tbr, 15360 tbn (default)\n",
      "    Metadata:\n",
      "      handler_name    : VideoHandler\n",
      "      vendor_id       : [0][0][0][0]\n",
      "  Stream #0:1[0x2](und): Audio: mp3 (mp4a / 0x6134706D), 48000 Hz, stereo, fltp, 256 kb/s (default)\n",
      "    Metadata:\n",
      "      handler_name    : SoundHandler\n",
      "      vendor_id       : [0][0][0][0]\n",
      "Stream mapping:\n",
      "  Stream #0:0 (h264) -> scale:default (graph 0)\n",
      "  framerate:default (graph 0) -> Stream #0:0 (libx264)\n",
      "  Stream #0:1 -> #0:1 (mp3 (mp3float) -> aac (native))\n",
      "Press [q] to stop, [?] for help\n",
      "[Parsed_framerate_1 @ 0x7fb360807240] time base:1/15360 -> 1/15360 exact:1\n",
      "[Parsed_framerate_1 @ 0x7fb360807240] fps -> fps:30/1 scene score:8.200000 interpolate start:15 end:240\n",
      "[libx264 @ 0x7fb35cf08980] using SAR=1/1\n",
      "[libx264 @ 0x7fb35cf08980] using cpu capabilities: MMX2 SSE2Fast SSSE3 SSE4.2 AVX FMA3 BMI2 AVX2\n",
      "[libx264 @ 0x7fb35cf08980] profile High, level 4.0, 4:2:0, 8-bit\n",
      "[libx264 @ 0x7fb35cf08980] 264 - core 163 r3060 5db6aa6 - H.264/MPEG-4 AVC codec - Copyleft 2003-2021 - http://www.videolan.org/x264.html - options: cabac=1 ref=3 deblock=1:0:0 analyse=0x3:0x113 me=hex subme=7 psy=1 psy_rd=1.00:0.00 mixed_ref=1 me_range=16 chroma_me=1 trellis=1 8x8dct=1 cqm=0 deadzone=21,11 fast_pskip=1 chroma_qp_offset=-2 threads=12 lookahead_threads=2 sliced_threads=0 nr=0 decimate=1 interlaced=0 bluray_compat=0 constrained_intra=0 bframes=3 b_pyramid=2 b_adapt=1 b_bias=0 direct=1 weightb=1 open_gop=0 weightp=2 keyint=250 keyint_min=25 scenecut=40 intra_refresh=0 rc_lookahead=40 rc=crf mbtree=1 crf=23.0 qcomp=0.60 qpmin=0 qpmax=69 qpstep=4 ip_ratio=1.40 aq=1:1.00\n",
      "Output #0, mp4, to '/Users/aking/Desktop/Temp/ShrinkTutorial1200.mp4':\n",
      "  Metadata:\n",
      "    major_brand     : isom\n",
      "    minor_version   : 512\n",
      "    compatible_brands: isomiso2avc1mp41\n",
      "    encoder         : Lavf59.16.100\n",
      "  Stream #0:0: Video: h264 (avc1 / 0x31637661), yuv420p(progressive), 1200x1600 [SAR 1:1 DAR 3:4], q=2-31, 30 fps, 15360 tbn\n",
      "    Metadata:\n",
      "      encoder         : Lavc59.18.100 libx264\n",
      "    Side data:\n",
      "      cpb: bitrate max/min/avg: 0/0/0 buffer size: 0 vbv_delay: N/A\n",
      "  Stream #0:1(und): Audio: aac (LC) (mp4a / 0x6134706D), 48000 Hz, stereo, fltp, 128 kb/s (default)\n",
      "    Metadata:\n",
      "      handler_name    : SoundHandler\n",
      "      vendor_id       : [0][0][0][0]\n",
      "      encoder         : Lavc59.18.100 aac\n"
     ]
    },
    {
     "name": "stderr",
     "output_type": "stream",
     "text": [
      "frame=  883 fps= 40 q=29.0 size=    8960kB time=00:00:29.67 bitrate=2473.5kbits/s speed=1.33x    \r"
     ]
    },
    {
     "name": "stdout",
     "output_type": "stream",
     "text": [
      "轉換完成\n",
      "全部完成～～\n"
     ]
    },
    {
     "name": "stderr",
     "output_type": "stream",
     "text": [
      "frame=  893 fps= 39 q=-1.0 Lsize=    9388kB time=00:00:29.80 bitrate=2580.4kbits/s speed=1.29x    \n",
      "video:9346kB audio:8kB subtitle:0kB other streams:0kB global headers:0kB muxing overhead: 0.356306%\n",
      "[libx264 @ 0x7fb35cf08980] frame I:11    Avg QP:17.52  size: 50269\n",
      "[libx264 @ 0x7fb35cf08980] frame P:239   Avg QP:22.05  size: 20937\n",
      "[libx264 @ 0x7fb35cf08980] frame B:643   Avg QP:24.33  size:  6241\n",
      "[libx264 @ 0x7fb35cf08980] consecutive B-frames:  2.7%  2.9%  3.0% 91.4%\n",
      "[libx264 @ 0x7fb35cf08980] mb I  I16..4: 21.8% 71.1%  7.1%\n",
      "[libx264 @ 0x7fb35cf08980] mb P  I16..4:  7.0% 14.6%  0.9%  P16..4: 28.8%  6.1%  3.0%  0.0%  0.0%    skip:39.7%\n",
      "[libx264 @ 0x7fb35cf08980] mb B  I16..4:  0.8%  0.8%  0.0%  B16..8: 26.9%  1.8%  0.2%  direct: 2.1%  skip:67.3%  L0:43.9% L1:53.4% BI: 2.7%\n",
      "[libx264 @ 0x7fb35cf08980] 8x8 transform intra:63.6% inter:88.3%\n",
      "[libx264 @ 0x7fb35cf08980] coded y,uvDC,uvAC intra: 31.8% 29.0% 6.6% inter: 9.1% 10.1% 0.3%\n",
      "[libx264 @ 0x7fb35cf08980] i16 v,h,dc,p: 33% 39% 13% 15%\n",
      "[libx264 @ 0x7fb35cf08980] i8 v,h,dc,ddl,ddr,vr,hd,vl,hu: 25% 23% 36%  2%  3%  3%  3%  2%  3%\n",
      "[libx264 @ 0x7fb35cf08980] i4 v,h,dc,ddl,ddr,vr,hd,vl,hu: 27% 29% 13%  4%  7%  7%  6%  4%  4%\n",
      "[libx264 @ 0x7fb35cf08980] i8c dc,h,v,p: 68% 16% 14%  2%\n",
      "[libx264 @ 0x7fb35cf08980] Weighted P-Frames: Y:5.4% UV:4.6%\n",
      "[libx264 @ 0x7fb35cf08980] ref P L0: 59.6% 12.1% 20.7%  7.6%  0.1%\n",
      "[libx264 @ 0x7fb35cf08980] ref B L0: 85.1% 11.7%  3.2%\n",
      "[libx264 @ 0x7fb35cf08980] ref B L1: 94.1%  5.9%\n",
      "[libx264 @ 0x7fb35cf08980] kb/s:2571.91\n",
      "[aac @ 0x7fb35cf09d40] Qavg: 65536.000\n"
     ]
    }
   ],
   "source": [
    "InputVideoPathName = r'/Users/aking/Desktop/Temp/ShrinkTutorial.mov' #輸入影像的路徑與檔名\n",
    "\n",
    "basename = os.path.basename(InputVideoPathName)\n",
    "OutPutWidth = 886           #輸出寬度\n",
    "OutPutHeight = 1920                #輸出高度\n",
    "OutputVideoPathName = r'/Users/aking/Desktop/Temp/{}{}.mp4'.format(basename[:-4],OutPutWidth)   #輸出影像的路徑與檔名\n",
    "ResizeVideo(InputVideoPathName,OutPutWidth,OutPutHeight,OutputVideoPathName)\n",
    "\n",
    "OutPutWidth = 1080           #輸出寬度\n",
    "OutPutHeight = 1920                #輸出高度\n",
    "OutputVideoPathName = r'/Users/aking/Desktop/Temp/{}{}.mp4'.format(basename[:-4],OutPutWidth)   #輸出影像的路徑與檔名\n",
    "ResizeVideo(InputVideoPathName,OutPutWidth,OutPutHeight,OutputVideoPathName)\n",
    "\n",
    "OutPutWidth = 1200          #輸出寬度\n",
    "OutPutHeight = 1600                #輸出高度\n",
    "OutputVideoPathName = r'/Users/aking/Desktop/Temp/{}{}.mp4'.format(basename[:-4],OutPutWidth)   #輸出影像的路徑與檔名\n",
    "ResizeVideo(InputVideoPathName,OutPutWidth,OutPutHeight,OutputVideoPathName)\n",
    "\n",
    "print (\"全部完成～～\")"
   ]
  },
  {
   "cell_type": "code",
   "execution_count": null,
   "id": "7b7ce3b6",
   "metadata": {},
   "outputs": [],
   "source": []
  },
  {
   "cell_type": "markdown",
   "id": "f8a72b6d",
   "metadata": {},
   "source": [
    "# 以下懷舊程式碼無須理會"
   ]
  },
  {
   "cell_type": "code",
   "execution_count": 26,
   "id": "ebd4fffa",
   "metadata": {},
   "outputs": [
    {
     "name": "stdout",
     "output_type": "stream",
     "text": [
      "ffmpeg -i /Users/aking/Documents/2021Unity/LAVA/上架檔案/影片/Tmp.mp4 -i /Users/aking/Documents/2021Unity/LAVA/上架檔案/影片/sound.aac -c copy -map 0:v:0 -map 1:a:0 /Users/aking/Documents/2021Unity/LAVA/上架檔案/影片/Lava886S.mp4\n"
     ]
    }
   ],
   "source": [
    "ffmpeg -i /Users/aking/Documents/2021Unity/LAVA/上架檔案/影片/Lava.mov -filter_complex \"scale=1200:1600,framerate=30;\"  /Users/aking/Documents/2021Unity/LAVA/上架檔案/影片/ffout.mp4\n",
    "ffmpeg -i /Users/aking/Documents/2021Unity/LAVA/上架檔案/影片/Lava.mov -filter_complex \"[0:v]setpts=1*PTS,scale=1200:1600,framerate=30[v];[0:a]atempo=8.0[a]\" -map \"[v]\" -map \"[a]\" /Users/aking/Documents/2021Unity/LAVA/上架檔案/影片/ffout1600.mp4"
   ]
  },
  {
   "cell_type": "code",
   "execution_count": 46,
   "id": "a970452a",
   "metadata": {},
   "outputs": [
    {
     "name": "stdout",
     "output_type": "stream",
     "text": [
      "原始寬度1170.0 高度2532.0 FPS41.09424851746791\n"
     ]
    },
    {
     "name": "stderr",
     "output_type": "stream",
     "text": [
      "ffmpeg version 5.0 Copyright (c) 2000-2022 the FFmpeg developers\n",
      "  built with Apple clang version 13.0.0 (clang-1300.0.29.30)\n",
      "  configuration: --prefix=/usr/local/Cellar/ffmpeg/5.0 --enable-shared --enable-pthreads --enable-version3 --cc=clang --host-cflags= --host-ldflags= --enable-ffplay --enable-gnutls --enable-gpl --enable-libaom --enable-libbluray --enable-libdav1d --enable-libmp3lame --enable-libopus --enable-librav1e --enable-librist --enable-librubberband --enable-libsnappy --enable-libsrt --enable-libtesseract --enable-libtheora --enable-libvidstab --enable-libvmaf --enable-libvorbis --enable-libvpx --enable-libwebp --enable-libx264 --enable-libx265 --enable-libxml2 --enable-libxvid --enable-lzma --enable-libfontconfig --enable-libfreetype --enable-frei0r --enable-libass --enable-libopencore-amrnb --enable-libopencore-amrwb --enable-libopenjpeg --enable-libspeex --enable-libsoxr --enable-libzmq --enable-libzimg --disable-libjack --disable-indev=jack --enable-videotoolbox\n",
      "  libavutil      57. 17.100 / 57. 17.100\n",
      "  libavcodec     59. 18.100 / 59. 18.100\n",
      "  libavformat    59. 16.100 / 59. 16.100\n",
      "  libavdevice    59.  4.100 / 59.  4.100\n",
      "  libavfilter     8. 24.100 /  8. 24.100\n",
      "  libswscale      6.  4.100 /  6.  4.100\n",
      "  libswresample   4.  3.100 /  4.  3.100\n",
      "  libpostproc    56.  3.100 / 56.  3.100\n",
      "Input #0, mov,mp4,m4a,3gp,3g2,mj2, from '/Users/aking/Desktop/Temp/Purchase_RestorePurchases.mov':\n",
      "  Metadata:\n",
      "    major_brand     : qt  \n",
      "    minor_version   : 0\n",
      "    compatible_brands: qt  \n",
      "    creation_time   : 2022-04-08T03:00:58.000000Z\n",
      "    com.apple.quicktime.make: Apple\n",
      "    com.apple.quicktime.model: MacBookPro14,3\n",
      "    com.apple.quicktime.software: macOS 12.2.1 (21D62)\n",
      "    com.apple.quicktime.creationdate: 2022-04-08T10:58:40+0800\n",
      "  Duration: 00:00:20.12, start: 0.000000, bitrate: 14019 kb/s\n",
      "  Stream #0:0[0x1](und): Audio: aac (LC) (mp4a / 0x6134706D), 48000 Hz, stereo, fltp, 2 kb/s (default)\n",
      "    Metadata:\n",
      "      creation_time   : 2022-04-08T03:00:58.000000Z\n",
      "      handler_name    : Core Media Audio\n",
      "      vendor_id       : [0][0][0][0]\n",
      "  Stream #0:1[0x2](und): Video: h264 (High) (avc1 / 0x31637661), yuvj420p(pc, bt709, progressive), 1170x2532, 13789 kb/s, 41.09 fps, 59.94 tbr, 60k tbn (default)\n",
      "    Metadata:\n",
      "      creation_time   : 2022-04-08T03:00:58.000000Z\n",
      "      handler_name    : Core Media Video\n",
      "      vendor_id       : [0][0][0][0]\n",
      "      encoder         : H.264\n",
      "Stream mapping:\n",
      "  Stream #0:0 -> #0:0 (aac (native) -> mp3 (libmp3lame))\n",
      "Press [q] to stop, [?] for help\n",
      "Output #0, mp3, to '/Users/aking/Desktop/Temp/sound.mp3':\n",
      "  Metadata:\n",
      "    major_brand     : qt  \n",
      "    minor_version   : 0\n",
      "    compatible_brands: qt  \n",
      "    com.apple.quicktime.creationdate: 2022-04-08T10:58:40+0800\n",
      "    com.apple.quicktime.make: Apple\n",
      "    com.apple.quicktime.model: MacBookPro14,3\n",
      "    com.apple.quicktime.software: macOS 12.2.1 (21D62)\n",
      "    TSSE            : Lavf59.16.100\n",
      "  Stream #0:0(und): Audio: mp3, 48000 Hz, stereo, fltp, 256 kb/s (default)\n",
      "    Metadata:\n",
      "      creation_time   : 2022-04-08T03:00:58.000000Z\n",
      "      handler_name    : Core Media Audio\n",
      "      vendor_id       : [0][0][0][0]\n",
      "      encoder         : Lavc59.18.100 libmp3lame\n",
      "size=     631kB time=00:00:20.13 bitrate= 256.7kbits/s speed= 152x    \n",
      "video:0kB audio:630kB subtitle:0kB other streams:0kB global headers:0kB muxing overhead: 0.174541%\n",
      "ffmpeg version 5.0 Copyright (c) 2000-2022 the FFmpeg developers\n",
      "  built with Apple clang version 13.0.0 (clang-1300.0.29.30)\n",
      "  configuration: --prefix=/usr/local/Cellar/ffmpeg/5.0 --enable-shared --enable-pthreads --enable-version3 --cc=clang --host-cflags= --host-ldflags= --enable-ffplay --enable-gnutls --enable-gpl --enable-libaom --enable-libbluray --enable-libdav1d --enable-libmp3lame --enable-libopus --enable-librav1e --enable-librist --enable-librubberband --enable-libsnappy --enable-libsrt --enable-libtesseract --enable-libtheora --enable-libvidstab --enable-libvmaf --enable-libvorbis --enable-libvpx --enable-libwebp --enable-libx264 --enable-libx265 --enable-libxml2 --enable-libxvid --enable-lzma --enable-libfontconfig --enable-libfreetype --enable-frei0r --enable-libass --enable-libopencore-amrnb --enable-libopencore-amrwb --enable-libopenjpeg --enable-libspeex --enable-libsoxr --enable-libzmq --enable-libzimg --disable-libjack --disable-indev=jack --enable-videotoolbox\n",
      "  libavutil      57. 17.100 / 57. 17.100\n",
      "  libavcodec     59. 18.100 / 59. 18.100\n",
      "  libavformat    59. 16.100 / 59. 16.100\n",
      "  libavdevice    59.  4.100 / 59.  4.100\n",
      "  libavfilter     8. 24.100 /  8. 24.100\n",
      "  libswscale      6.  4.100 /  6.  4.100\n",
      "  libswresample   4.  3.100 /  4.  3.100\n",
      "  libpostproc    56.  3.100 / 56.  3.100\n",
      "Input #0, mov,mp4,m4a,3gp,3g2,mj2, from '/Users/aking/Desktop/Temp/TmpVideo.mp4':\n",
      "  Metadata:\n",
      "    major_brand     : isom\n",
      "    minor_version   : 512\n",
      "    compatible_brands: isomiso2avc1mp41\n",
      "    encoder         : Lavf58.76.100\n",
      "  Duration: 00:00:19.96, start: 0.000000, bitrate: 12562 kb/s\n",
      "  Stream #0:0[0x1](und): Video: h264 (High) (avc1 / 0x31637661), yuv420p(progressive), 886x1920 [SAR 1:1 DAR 443:960], 12559 kb/s, 41.09 fps, 41.09 tbr, 41094 tbn (default)\n",
      "    Metadata:\n",
      "      handler_name    : VideoHandler\n",
      "      vendor_id       : [0][0][0][0]\n",
      "Input #1, mp3, from '/Users/aking/Desktop/Temp/sound.mp3':\n",
      "  Metadata:\n",
      "    major_brand     : qt  \n",
      "    minor_version   : 0\n",
      "    compatible_brands: qt  \n",
      "    com.apple.quicktime.creationdate: 2022-04-08T10:58:40+0800\n",
      "    com.apple.quicktime.make: Apple\n",
      "    com.apple.quicktime.model: MacBookPro14,3\n",
      "    com.apple.quicktime.software: macOS 12.2.1 (21D62)\n",
      "    encoder         : Lavf59.16.100\n",
      "  Duration: 00:00:20.16, start: 0.023021, bitrate: 256 kb/s\n",
      "  Stream #1:0: Audio: mp3, 48000 Hz, stereo, fltp, 256 kb/s\n",
      "    Metadata:\n",
      "      encoder         : Lavc59.18\n",
      "Output #0, mp4, to '/Users/aking/Desktop/Temp/TmpVideoWithSound.mp4':\n",
      "  Metadata:\n",
      "    major_brand     : isom\n",
      "    minor_version   : 512\n",
      "    compatible_brands: isomiso2avc1mp41\n",
      "    encoder         : Lavf59.16.100\n",
      "  Stream #0:0(und): Video: h264 (High) (avc1 / 0x31637661), yuv420p(progressive), 886x1920 [SAR 1:1 DAR 443:960], q=2-31, 12559 kb/s, 41.09 fps, 41.09 tbr, 41094 tbn (default)\n",
      "    Metadata:\n",
      "      handler_name    : VideoHandler\n",
      "      vendor_id       : [0][0][0][0]\n",
      "  Stream #0:1: Audio: mp3 (mp4a / 0x6134706D), 48000 Hz, stereo, fltp, 256 kb/s\n",
      "    Metadata:\n",
      "      encoder         : Lavc59.18\n",
      "Stream mapping:\n",
      "  Stream #0:0 -> #0:0 (copy)\n",
      "  Stream #1:0 -> #0:1 (copy)\n",
      "Press [q] to stop, [?] for help\n",
      "frame=  820 fps=0.0 q=-1.0 Lsize=   31239kB time=00:00:20.13 bitrate=12708.5kbits/s speed= 895x    \n",
      "video:30592kB audio:630kB subtitle:0kB other streams:0kB global headers:0kB muxing overhead: 0.056420%\n",
      "ffmpeg version 5.0 Copyright (c) 2000-2022 the FFmpeg developers\n",
      "  built with Apple clang version 13.0.0 (clang-1300.0.29.30)\n",
      "  configuration: --prefix=/usr/local/Cellar/ffmpeg/5.0 --enable-shared --enable-pthreads --enable-version3 --cc=clang --host-cflags= --host-ldflags= --enable-ffplay --enable-gnutls --enable-gpl --enable-libaom --enable-libbluray --enable-libdav1d --enable-libmp3lame --enable-libopus --enable-librav1e --enable-librist --enable-librubberband --enable-libsnappy --enable-libsrt --enable-libtesseract --enable-libtheora --enable-libvidstab --enable-libvmaf --enable-libvorbis --enable-libvpx --enable-libwebp --enable-libx264 --enable-libx265 --enable-libxml2 --enable-libxvid --enable-lzma --enable-libfontconfig --enable-libfreetype --enable-frei0r --enable-libass --enable-libopencore-amrnb --enable-libopencore-amrwb --enable-libopenjpeg --enable-libspeex --enable-libsoxr --enable-libzmq --enable-libzimg --disable-libjack --disable-indev=jack --enable-videotoolbox\n",
      "  libavutil      57. 17.100 / 57. 17.100\n",
      "  libavcodec     59. 18.100 / 59. 18.100\n",
      "  libavformat    59. 16.100 / 59. 16.100\n",
      "  libavdevice    59.  4.100 / 59.  4.100\n",
      "  libavfilter     8. 24.100 /  8. 24.100\n",
      "  libswscale      6.  4.100 /  6.  4.100\n",
      "  libswresample   4.  3.100 /  4.  3.100\n",
      "  libpostproc    56.  3.100 / 56.  3.100\n",
      "Input #0, mov,mp4,m4a,3gp,3g2,mj2, from '/Users/aking/Desktop/Temp/TmpVideoWithSound.mp4':\n",
      "  Metadata:\n",
      "    major_brand     : isom\n",
      "    minor_version   : 512\n",
      "    compatible_brands: isomiso2avc1mp41\n",
      "    encoder         : Lavf59.16.100\n",
      "  Duration: 00:00:20.14, start: 0.000000, bitrate: 12708 kb/s\n",
      "  Stream #0:0[0x1](und): Video: h264 (High) (avc1 / 0x31637661), yuv420p(progressive), 886x1920 [SAR 1:1 DAR 443:960], 12559 kb/s, 41.09 fps, 41.09 tbr, 41094 tbn (default)\n",
      "    Metadata:\n",
      "      handler_name    : VideoHandler\n",
      "      vendor_id       : [0][0][0][0]\n",
      "  Stream #0:1[0x2](und): Audio: mp3 (mp4a / 0x6134706D), 48000 Hz, stereo, fltp, 256 kb/s (default)\n",
      "    Metadata:\n",
      "      handler_name    : SoundHandler\n",
      "      vendor_id       : [0][0][0][0]\n",
      "Stream mapping:\n",
      "  Stream #0:0 (h264) -> scale:default (graph 0)\n",
      "  framerate:default (graph 0) -> Stream #0:0 (libx264)\n",
      "  Stream #0:1 -> #0:1 (mp3 (mp3float) -> aac (native))\n",
      "Press [q] to stop, [?] for help\n",
      "[Parsed_framerate_1 @ 0x7fe600730800] time base:1/41094 -> 1/205470 exact:1\n",
      "[Parsed_framerate_1 @ 0x7fe600730800] fps -> fps:30/1 scene score:8.200000 interpolate start:15 end:240\n",
      "[libx264 @ 0x7fe601205b80] using SAR=1/1\n",
      "[libx264 @ 0x7fe601205b80] using cpu capabilities: MMX2 SSE2Fast SSSE3 SSE4.2 AVX FMA3 BMI2 AVX2\n",
      "[libx264 @ 0x7fe601205b80] profile High, level 4.0, 4:2:0, 8-bit\n",
      "[libx264 @ 0x7fe601205b80] 264 - core 163 r3060 5db6aa6 - H.264/MPEG-4 AVC codec - Copyleft 2003-2021 - http://www.videolan.org/x264.html - options: cabac=1 ref=3 deblock=1:0:0 analyse=0x3:0x113 me=hex subme=7 psy=1 psy_rd=1.00:0.00 mixed_ref=1 me_range=16 chroma_me=1 trellis=1 8x8dct=1 cqm=0 deadzone=21,11 fast_pskip=1 chroma_qp_offset=-2 threads=12 lookahead_threads=2 sliced_threads=0 nr=0 decimate=1 interlaced=0 bluray_compat=0 constrained_intra=0 bframes=3 b_pyramid=2 b_adapt=1 b_bias=0 direct=1 weightb=1 open_gop=0 weightp=2 keyint=250 keyint_min=25 scenecut=40 intra_refresh=0 rc_lookahead=40 rc=crf mbtree=1 crf=23.0 qcomp=0.60 qpmin=0 qpmax=69 qpstep=4 ip_ratio=1.40 aq=1:1.00\n",
      "Output #0, mp4, to '/Users/aking/Desktop/Temp/Purchase_RestorePurchases886.mp4':\n",
      "  Metadata:\n",
      "    major_brand     : isom\n",
      "    minor_version   : 512\n",
      "    compatible_brands: isomiso2avc1mp41\n",
      "    encoder         : Lavf59.16.100\n",
      "  Stream #0:0: Video: h264 (avc1 / 0x31637661), yuv420p(progressive), 886x1920 [SAR 1:1 DAR 443:960], q=2-31, 30 fps, 15360 tbn\n",
      "    Metadata:\n",
      "      encoder         : Lavc59.18.100 libx264\n",
      "    Side data:\n",
      "      cpb: bitrate max/min/avg: 0/0/0 buffer size: 0 vbv_delay: N/A\n",
      "  Stream #0:1(und): Audio: aac (LC) (mp4a / 0x6134706D), 48000 Hz, stereo, fltp, 128 kb/s (default)\n",
      "    Metadata:\n",
      "      handler_name    : SoundHandler\n",
      "      vendor_id       : [0][0][0][0]\n",
      "      encoder         : Lavc59.18.100 aac\n"
     ]
    },
    {
     "name": "stderr",
     "output_type": "stream",
     "text": [
      "frame=  520 fps= 61 q=29.0 size=    3584kB time=00:00:17.47 bitrate=1680.4kbits/s speed=2.06x    \r"
     ]
    },
    {
     "name": "stdout",
     "output_type": "stream",
     "text": [
      "轉換完成\n"
     ]
    },
    {
     "name": "stderr",
     "output_type": "stream",
     "text": [
      "frame=  599 fps= 67 q=-1.0 Lsize=    3716kB time=00:00:20.13 bitrate=1511.4kbits/s speed=2.24x    \n",
      "video:3687kB audio:6kB subtitle:0kB other streams:0kB global headers:0kB muxing overhead: 0.611658%\n",
      "[libx264 @ 0x7fe601205b80] frame I:7     Avg QP:17.46  size: 36329\n",
      "[libx264 @ 0x7fe601205b80] frame P:181   Avg QP:18.80  size: 10009\n",
      "[libx264 @ 0x7fe601205b80] frame B:411   Avg QP:18.42  size:  4159\n",
      "[libx264 @ 0x7fe601205b80] consecutive B-frames:  6.3%  3.3%  9.5% 80.8%\n",
      "[libx264 @ 0x7fe601205b80] mb I  I16..4: 43.5% 46.8%  9.7%\n",
      "[libx264 @ 0x7fe601205b80] mb P  I16..4: 10.9% 14.3%  1.4%  P16..4: 11.5%  1.8%  0.8%  0.0%  0.0%    skip:59.3%\n",
      "[libx264 @ 0x7fe601205b80] mb B  I16..4:  1.4%  1.3%  0.2%  B16..8: 13.7%  1.5%  0.2%  direct: 1.9%  skip:79.9%  L0:47.2% L1:49.9% BI: 2.9%\n",
      "[libx264 @ 0x7fe601205b80] 8x8 transform intra:51.5% inter:86.3%\n",
      "[libx264 @ 0x7fe601205b80] coded y,uvDC,uvAC intra: 20.2% 29.1% 5.1% inter: 3.6% 5.3% 0.1%\n",
      "[libx264 @ 0x7fe601205b80] i16 v,h,dc,p: 57% 26%  6% 10%\n",
      "[libx264 @ 0x7fe601205b80] i8 v,h,dc,ddl,ddr,vr,hd,vl,hu: 33% 18% 34%  3%  2%  2%  2%  2%  2%\n",
      "[libx264 @ 0x7fe601205b80] i4 v,h,dc,ddl,ddr,vr,hd,vl,hu: 38% 24% 16%  4%  3%  4%  4%  3%  3%\n",
      "[libx264 @ 0x7fe601205b80] i8c dc,h,v,p: 65% 17% 16%  2%\n",
      "[libx264 @ 0x7fe601205b80] Weighted P-Frames: Y:1.1% UV:0.6%\n",
      "[libx264 @ 0x7fe601205b80] ref P L0: 58.7%  7.8% 21.5% 11.9%  0.0%\n",
      "[libx264 @ 0x7fe601205b80] ref B L0: 77.7% 17.6%  4.7%\n",
      "[libx264 @ 0x7fe601205b80] ref B L1: 92.5%  7.5%\n",
      "[libx264 @ 0x7fe601205b80] kb/s:1512.63\n",
      "[aac @ 0x7fe601207280] Qavg: 65536.000\n"
     ]
    }
   ],
   "source": [
    "import cv2\n",
    "import os\n",
    "\n",
    "#InputVideoPathName = r'/Users/aking/Documents/2021Unity/LAVA/上架檔案/影片/RestoreAndPurchases.mov'  #輸入影像的路徑與檔名\n",
    "#OutPutWidth = 560            #輸出寬度\n",
    "#OutPutHeight = 1200                 #輸出高度\n",
    "#OutputVideoPathName = r'/Users/aking/Documents/2021Unity/LAVA/上架檔案/影片/RestoreAndPurchases.mp4'   #輸出影像的路徑與檔名\n",
    "\n",
    "\n",
    "\n",
    "InputVideoPathName = r'/Users/aking/Desktop/Temp/Purchase_RestorePurchases.mov' #輸入影像的路徑與檔名\n",
    "OutPutWidth = 886           #輸出寬度\n",
    "OutPutHeight = 1920                #輸出高度\n",
    "OutputVideoPathName = r'/Users/aking/Desktop/Temp/Purchase_RestorePurchases{}.mp4'.format(OutPutWidth)   #輸出影像的路徑與檔名\n",
    "\n",
    "\n",
    "#=======================輸入設定====================================\n",
    "video = cv2.VideoCapture(InputVideoPathName)\n",
    "# 取得影像的尺寸大小\n",
    "width = video.get(cv2.CAP_PROP_FRAME_WIDTH)\n",
    "height = video.get(cv2.CAP_PROP_FRAME_HEIGHT)\n",
    "fps = video.get(cv2.CAP_PROP_FPS) #每秒鐘幾張\n",
    "print (\"原始寬度{} 高度{} FPS{}\".format(width , height,fps))\n",
    "\n",
    "\n",
    "#=======================輸出檔案設定=======================\n",
    "fourcc = cv2.VideoWriter_fourcc(*'avc1')\n",
    "VideoFilePath = r\"{}/TmpVideo.mp4\".format(os.path.dirname(InputVideoPathName)) #解析度調整後的畫面\n",
    "SoundFilePath = r\"{}/sound.mp3\".format(os.path.dirname(InputVideoPathName))    #原始檔案分離出聲音\n",
    "VideoWithSoundFilePath = r\"{}/TmpVideoWithSound.mp4\".format(os.path.dirname(InputVideoPathName)) #畫面與聲音合成影片\n",
    "#畫面與聲音合成影片 之後需要再轉檔一次 app store才會接受\n",
    "\n",
    "out = cv2.VideoWriter(VideoFilePath, fourcc, fps, (int(OutPutWidth),  int(OutPutHeight)))\n",
    "#=============開始轉換====================================\n",
    "while video.isOpened():\n",
    "    ret, frame = video.read()\n",
    "    if not ret:\n",
    "        break\n",
    "    image = AkingResize(frame, OutPutWidth, OutPutHeight)\n",
    "    out.write(image)\n",
    "    cv2.imshow('frame', image)\n",
    "    if cv2.waitKey(1) == ord('q'):\n",
    "        break\n",
    "video.release()\n",
    "out.release()\n",
    "\n",
    "CMD = r\"ffmpeg -i {} -f mp3 -ab 256000 -vn {}\".format(InputVideoPathName,SoundFilePath) #原始檔案分離出聲音\n",
    "os.system(CMD) #原始檔案分離出聲音\n",
    "\n",
    "\n",
    "CMD1 = r\"ffmpeg -i {} -i {} -c copy -map 0:v:0 -map 1:a:0 {}\".format(VideoFilePath, SoundFilePath , VideoWithSoundFilePath)\n",
    "os.system(CMD1) #畫面與聲音合成影片\n",
    "\n",
    "CMD2 = \"ffmpeg -i {} -filter_complex 'scale={}:{},framerate=30' {}\".format(VideoWithSoundFilePath , OutPutWidth,OutPutHeight,OutputVideoPathName)\n",
    "os.system(CMD2) #最後再轉檔案一次 App store才會吃\n",
    "\n",
    "\n",
    "\n",
    "os.system(\"rm -f {}\".format(VideoFilePath)) \n",
    "os.system(\"rm -f {}\".format(SoundFilePath)) \n",
    "os.system(\"rm -f {}\".format(VideoWithSoundFilePath)) \n",
    "\n",
    "\n",
    "\n",
    "print(\"轉換完成\")\n",
    "cv2.destroyAllWindows()"
   ]
  }
 ],
 "metadata": {
  "kernelspec": {
   "display_name": "Python 3 (ipykernel)",
   "language": "python",
   "name": "python3"
  },
  "language_info": {
   "codemirror_mode": {
    "name": "ipython",
    "version": 3
   },
   "file_extension": ".py",
   "mimetype": "text/x-python",
   "name": "python",
   "nbconvert_exporter": "python",
   "pygments_lexer": "ipython3",
   "version": "3.9.12"
  }
 },
 "nbformat": 4,
 "nbformat_minor": 5
}
